<?xml version="1.0" standalone="no"?>
<!DOCTYPE svg PUBLIC "-//W3C//DTD SVG 1.1//EN" "http://www.w3.org/Graphics/SVG/1.1/DTD/svg11.dtd" >
<svg xmlns="http://www.w3.org/2000/svg">
<metadata>Generated by IcoMoon</metadata>
<defs>
<font id="Prisma" horiz-adv-x="1024">
<font-face units-per-em="1024" ascent="960" descent="-64" />
<missing-glyph horiz-adv-x="1024" />
<glyph unicode="&#x20;" horiz-adv-x="512" d="" />
<glyph unicode="&#xe900;" glyph-name="adelanto" horiz-adv-x="800" d="M474.656 373.056c-4.032 0-7.904-0.672-11.808-1.184-2.432-14.688-9.504-30.368-23.328-41.184-13.44-10.464-33.088-10.688-46.4-10.688-0.256 0-0.512 0-0.736 0-5.248-11.488-8.384-24.16-8.384-37.632 0-50.016 40.608-90.624 90.656-90.624s90.656 40.608 90.656 90.624c0 50.144-40.608 90.688-90.656 90.688zM364.512 575.456h-224v-31.456h224v31.456zM395.424 702.4l-30.944 1.056v64h-32v-64h-160v64h-32v-64h-19.488c-21.504 0-38.528-15.36-38.528-36.672l-0.224-271.328c0-21.312 21.952-43.456 43.456-43.456h271.328c21.28 0 31.456-0.544 31.456 31.456v288c0.032 21.312-11.776 30.944-33.056 30.944zM396.512 383.456h-288v225.184h288v-225.184zM300.512 479.456h-160v-31.456h160v31.456zM263.104 320v-98.048c33.376 0 60.448-27.072 60.448-60.416h302.24c0 33.344 27.072 60.416 60.448 60.416v120.928c-33.376 0-60.448 27.072-60.448 60.416h-161.792v60.48h282.656v-362.688h-544v218.912h60.448z" />
<glyph unicode="&#xe901;" glyph-name="amigos" d="M544 608c0-88.366-71.634-160-160-160s-160 71.634-160 160c0 88.366 71.634 160 160 160s160-71.634 160-160zM701.728 386.272c70.080 0 126.848 56.736 126.848 126.912 0 70.048-56.736 126.816-126.848 126.816s-126.848-56.736-126.848-126.816c0-70.144 56.704-126.912 126.848-126.912zM384.576 352c-106.784 0-320.576-53.632-320.576-160.032v-95.968h352v97.152c0 63.424 61.984 106.208 133.056 131.264-57.984 18.272-120.384 27.584-164.48 27.584zM706.304 288c-2.624 0-5.6-0.064-8.416-0.128-85.664-1.216-217.888-44.032-217.888-94.72v-97.152h480v87.328c0 84.32-168.992 104.672-253.696 104.672z" />
<glyph unicode="&#xe902;" glyph-name="consulta-cbu" d="M516 885.344c-244.48 0-442.656-198.176-442.656-442.688 0-244.48 198.176-442.656 442.656-442.656s442.656 198.176 442.656 442.656c0 244.8-199.2 442.688-442.656 442.688zM559.552 781.984c30.656 0 54.432-24.8 54.432-55.456 0.032-24.128-5.984-44.608-37.984-52.256v-98.272h-32v32h-32v32h32v34.272c-32 7.616-38.432 28.128-38.432 52.256 0 30.656 23.328 55.456 53.984 55.456zM800 406.432c0-1.856-2.24-3.712-2.944-5.568-5.216-14.048-18.688-23.552-33.632-24.064-2.016-0.096-4.288-0.288-6.24 0-5.536 0.768-7.68-1.056-8.928-6.976-10.304-48.288-35.616-87.552-73.568-118.88-3.168-2.592-4.48-5.088-4.416-9.184 0.288-15.072 0.096-30.144 0.128-45.216 0.032-16.48-11.008-28.512-27.488-28.896-18.016-0.48-36.032-0.224-54.016-0.096-13.408 0.128-28.352 10.016-27.776 31.968-27.008-3.84-53.984-4.096-81.216 0.064-0.192-1.888-0.384-3.296-0.48-4.672-0.864-15.712-11.776-26.912-27.584-27.264-18.016-0.416-36.032-0.448-54.016 0-16.448 0.384-27.328 11.872-27.392 28.256-0.128 15.616-0.128 31.232 0.032 46.848 0.032 3.296-1.024 5.28-3.552 7.328-28.864 23.552-50.816 52.32-64.544 87.072-1.408 3.616-3.232 4.448-6.816 4.48-10.816 0.032-21.76-0.416-32.384 1.024-16.832 2.272-29.376 17.824-29.44 34.816-0.064 27.36-0.032 54.784 0 82.144 0.032 20.864 15.904 36.832 36.928 37.088 10.848 0.128 21.696 0.128 32.544-0.032 3.072-0.032 4.928 0.672 6.432 3.68 11.328 22.976 26.72 42.944 45.216 60.608 1.728 1.632 2.944 4.288 3.328 6.624 4.224 25.28 8.224 50.656 12.32 75.968 2.496 15.264 14.336 20.64 27.52 12.512 20.96-12.864 41.92-25.792 62.656-38.976 2.848-1.824 5.344-5.024 6.72-8.192 16.16-36.96 52.192-60.512 91.488-58.88 29.28 1.216 53.408 13.216 72.064 35.936 6.336 7.744 9.28 8.448 17.696 3.136 50.976-32.192 85.536-76.416 99.2-135.84 0.256-1.056 0.672-2.080 1.248-3.744 4.032 0 8.192 0.064 12.352 0 17.088-0.16 31.104-9.76 36.512-25.92 0.32-0.96 2.112-1.888 2.112-2.816-0.064-4.768-0.064-9.536-0.064-14.336zM578.048 726.528c0-10.215-8.281-18.496-18.496-18.496s-18.496 8.281-18.496 18.496c0 10.215 8.281 18.496 18.496 18.496s18.496-8.281 18.496-18.496zM394.56 527.744c-22.944-0.032-40.928-18.656-40.768-42.176 0.128-21.792 18.624-39.744 40.768-39.648 23.008 0.096 41.12 18.4 40.928 41.344-0.128 21.984-18.848 40.512-40.928 40.48z" />
<glyph unicode="&#xe903;" glyph-name="derecha" d="M512.032 875.68l-91.552-91.136 272.288-272.544h-596.768v-128h596.8l-271.776-272.512 90.976-91.040 427.712 427.616z" />
<glyph unicode="&#xe904;" glyph-name="cpp" d="M805.344 774.4l-58.688 57.6-58.656-57.6-58.656 57.6-58.688-57.6-58.656 57.6-58.688-57.6-58.624 57.6-58.688-57.6-58.688 57.6-58.624-57.6-58.688 57.6v-768l58.688 57.6 58.624-57.6 58.688 57.6 58.688-57.6 58.624 57.6 58.688-57.6 58.656 57.6 58.688-57.6 58.656 57.6 58.656-57.6 58.688 57.6 58.656-57.6v768l-58.656-57.6zM509.952 686.528c26.816 0 48.544-21.312 48.544-47.616s-21.728-47.616-48.544-47.616-48.512 21.312-48.512 47.616 21.696 47.616 48.512 47.616zM736 512h-160v-288h-32v128h-64v-128h-32v288h-160v64h448v-64z" />
<glyph unicode="&#xe905;" glyph-name="advertencia" horiz-adv-x="1088" d="M73.6 32h944l-473.6 832-470.4-832zM499.2 560h92.8v-275.2h-92.8v275.2zM499.2 227.2h92.8v-92.8h-92.8v92.8z" />
<glyph unicode="&#xe906;" glyph-name="agregar" d="M544 640c0 89.6-70.4 160-160 160s-160-70.4-160-160c0-89.6 70.4-160 160-160s160 70.4 160 160zM640 512v-64h128v-128h64v128h128v64h-128v128h-64v-128h-128zM64 224v-96h640v96c0 105.6-214.4 160-320 160s-320-54.4-320-160z" />
<glyph unicode="&#xe907;" glyph-name="izquierda" d="M523.68 20.448l91.584 91.040-272.32 272.512h585.056v128h-585.088l271.808 272.576-91.008 91.072-427.712-427.616z" />
<glyph unicode="&#xe908;" glyph-name="archivar" horiz-adv-x="992" d="M809.6 832h-627.2c-51.2 0-89.6-41.6-89.6-89.6v-627.2c0-48 38.4-83.2 89.6-83.2h627.2c48 0 89.6 35.2 89.6 83.2v627.2c0 48-41.6 89.6-89.6 89.6zM809.6 294.4h-179.2c0-73.6-60.8-134.4-134.4-134.4s-134.4 60.8-134.4 134.4h-179.2v448h627.2v-448zM675.2 518.4h-89.6v134.4h-179.2v-134.4h-89.6l179.2-179.2 179.2 179.2z" />
<glyph unicode="&#xe909;" glyph-name="banco" horiz-adv-x="896" d="M166.4 505.6h118.4v-278.4h-118.4v278.4zM390.4 505.6h118.4v-278.4h-118.4v278.4zM604.8 505.6h118.4v-278.4h-118.4v278.4zM64 160h768v-128h-768v128zM448 864l-384-192v-96h768v96z" />
<glyph unicode="&#xe90a;" glyph-name="billetera" horiz-adv-x="960" d="M828.8 192v-41.6c0-48-38.4-86.4-86.4-86.4h-592c-48 0-86.4 38.4-86.4 83.2v595.2c0 48 38.4 86.4 86.4 86.4h595.2c48 0 86.4-38.4 86.4-86.4v-41.6h-387.2c-44.8 0-92.8-48-92.8-92.8v-339.2c0-48 44.8-76.8 92.8-76.8h384zM448 608v-320h448v320h-448zM614.4 380.8c-35.2 0-64 28.8-64 64s28.8 64 64 64 64-28.8 64-64c0-35.2-28.8-64-64-64z" />
<glyph unicode="&#xe90b;" glyph-name="bloqueado" horiz-adv-x="768" d="M624 576h-38.4v92.8c0 108.8-89.6 198.4-198.4 198.4s-201.6-89.6-201.6-198.4v-92.8h-41.6c-44.8 0-80-35.2-80-80v-384c0-44.8 35.2-80 80-80h480c44.8 0 80 35.2 80 80v384c0 44.8-35.2 80-80 80zM384 227.2c-44.8 0-80 35.2-80 80s35.2 80 80 80 80-35.2 80-80c0-41.6-35.2-80-80-80zM512 576h-256v92.8c0 67.2 60.8 121.6 128 121.6s128-54.4 128-124.8v-89.6z" />
<glyph unicode="&#xe90c;" glyph-name="buscar" horiz-adv-x="960" d="M374.4 854.4c166.4 0 300.8-134.4 300.8-300.8 0-73.6-28.8-144-73.6-195.2l12.8-12.8h35.2l230.4-230.4-70.4-70.4-230.4 230.4v35.2l-12.8 12.8c-54.4-44.8-121.6-73.6-195.2-73.6-166.4 0-300.8 134.4-300.8 300.8 3.2 169.6 137.6 304 304 304zM374.4 729.6c-99.2 0-176-80-176-176s80-176 176-176 176 80 176 176-76.8 176-176 176z" />
<glyph unicode="&#xe90d;" glyph-name="cajero-notouch" horiz-adv-x="992" d="M64 896v-864h864v864h-864zM224 416h-96v96h96v-96zM224 544h-96v96h96v-96zM224 672h-96v96h96v-96zM704 192h-416v160h416v-160zM704 416h-416v352h416v-352zM864 416h-96v96h96v-96zM864 544h-96v96h96v-96zM864 672h-96v96h96v-96z" />
<glyph unicode="&#xe90e;" glyph-name="cambio-de-clave" horiz-adv-x="960" d="M576 796.8l-102.4-86.4 102.4-86.4v48h160v60.8h-160v64zM864 841.6l-96 86.4v-64h-160v-64h160v-44.8l96 86.4zM281.6 387.2c-44.8 0-80 35.2-80 80s35.2 80 80 80c44.8 0 80-35.2 80-80s-35.2-80-80-80zM505.6 544c-32 92.8-121.6 160-224 160-131.2 0-217.6-105.6-217.6-236.8s86.4-243.2 217.6-243.2c102.4 0 192 67.2 224 160h166.4v-160h160v160h64v160h-390.4z" />
<glyph unicode="&#xe90f;" glyph-name="cerrar" d="M512 873.6c236.8 0 425.6-192 425.6-425.6 0-236.8-192-425.6-425.6-425.6s-425.6 188.8-425.6 425.6c0 236.8 188.8 425.6 425.6 425.6zM665.6 662.4l-153.6-153.6-153.6 153.6-60.8-60.8 153.6-153.6-153.6-153.6 60.8-60.8 153.6 153.6 153.6-153.6 60.8 60.8-153.6 153.6 153.6 153.6-60.8 60.8z" />
<glyph unicode="&#xe910;" glyph-name="carro" horiz-adv-x="896" d="M297.6 224c-41.6 0-73.6-35.2-73.6-76.8s32-73.6 73.6-73.6c41.6 0 73.6 32 73.6 73.6 3.2 41.6-32 76.8-73.6 76.8zM73.6 822.4v-73.6h73.6l134.4-284.8-51.2-92.8c-3.2-9.6-6.4-22.4-6.4-35.2 0-41.6 32-73.6 73.6-73.6h451.2v73.6h-435.2c-6.4 0-9.6 3.2-9.6 9.6 0 3.2 0 3.2 0 3.2l32 60.8h278.4c28.8 0 51.2 16 64 38.4l134.4 243.2c3.2 6.4 3.2 12.8 3.2 19.2 0 22.4-16 38.4-38.4 38.4h-547.2l-35.2 73.6h-121.6zM672 224c-41.6 0-73.6-32-73.6-73.6s32-73.6 73.6-73.6c41.6 0 73.6 32 73.6 73.6 3.2 38.4-32 73.6-73.6 73.6z" />
<glyph unicode="&#xe911;" glyph-name="cbu" horiz-adv-x="960" d="M864 425.6c-6.4 22.4-25.6 35.2-48 35.2-6.4 0-12.8 0-16 0 0 3.2 0 3.2-3.2 6.4-19.2 80-67.2 140.8-134.4 185.6-12.8 6.4-16 6.4-25.6-3.2-25.6-32-57.6-48-99.2-48-54.4-3.2-102.4 28.8-124.8 80-3.2 3.2-6.4 9.6-9.6 9.6-28.8 19.2-57.6 35.2-86.4 54.4-16 9.6-32 3.2-35.2-19.2-6.4-35.2-9.6-70.4-16-102.4 0-3.2-3.2-6.4-3.2-9.6-25.6-25.6-44.8-51.2-60.8-83.2-3.2-3.2-3.2-6.4-9.6-6.4-16 0-28.8 0-44.8 0-28.8 0-51.2-22.4-51.2-51.2 0-38.4 0-73.6 0-112 0-22.4 16-44.8 41.6-48 16-3.2 28.8 0 44.8 0 6.4 0 6.4 0 9.6-6.4 19.2-48 48-86.4 89.6-118.4 3.2-3.2 6.4-6.4 6.4-9.6 0-22.4 0-41.6 0-64s16-38.4 38.4-38.4c25.6 0 48 0 73.6 0 22.4 0 35.2 16 38.4 38.4 0 3.2 0 3.2 0 6.4 38.4-6.4 73.6-6.4 112 0 0-28.8 19.2-44.8 38.4-44.8 25.6 0 48 0 73.6 0 22.4 0 38.4 16 38.4 38.4 0 19.2 0 41.6 0 60.8 0 6.4 3.2 9.6 6.4 12.8 51.2 41.6 86.4 96 99.2 163.2 3.2 9.6 3.2 9.6 12.8 9.6 3.2 0 6.4 0 9.6 0 19.2 0 38.4 12.8 44.8 32 0 3.2 3.2 6.4 3.2 6.4 0 6.4 0 12.8 0 19.2-9.6 6.4-12.8 6.4-12.8 6.4zM316.8 457.6c-28.8 0-54.4 25.6-54.4 54.4 0 32 25.6 57.6 54.4 57.6s54.4-25.6 54.4-54.4c0-32-25.6-57.6-54.4-57.6zM566.4 768c28.8 9.6 51.2 38.4 51.2 70.4 0 41.6-35.2 76.8-76.8 76.8s-76.8-35.2-76.8-76.8c0-32 22.4-60.8 51.2-70.4v-54.4h-51.2v-51.2h51.2v-25.6h51.2v131.2zM515.2 841.6c0 12.8 12.8 25.6 25.6 25.6s25.6-12.8 25.6-25.6-12.8-25.6-25.6-25.6-25.6 9.6-25.6 25.6z" />
<glyph unicode="&#xe912;" glyph-name="no-videntes" horiz-adv-x="800" d="M256 790.4c0-37.114-30.086-67.2-67.2-67.2s-67.2 30.086-67.2 67.2c0 37.114 30.086 67.2 67.2 67.2s67.2-30.086 67.2-67.2zM233.6 662.4v0c-9.6 19.2-12.8 32-35.2 32-48 0-70.4-38.4-70.4-86.4v-147.2l-64-428.8h57.6l51.2 326.4 124.8-326.4h57.6l-99.2 400v105.6l32-41.6 118.4-60.8 25.6 51.2-115.2 57.6-83.2 118.4zM704 73.6l-233.6 380.8c-3.2 6.4-12.8 9.6-19.2 3.2-6.4-3.2-9.6-12.8-3.2-19.2l233.6-380.8c3.2-3.2 6.4-6.4 12.8-6.4 3.2 0 6.4 0 9.6 3.2s6.4 12.8 0 19.2z" />
<glyph unicode="&#xe913;" glyph-name="clave-mobile" horiz-adv-x="640" d="M480 864h-320c-51.2 0-96-41.6-96-96v-640c0-51.2 41.6-96 96-96h320c51.2 0 96 41.6 96 96v640c0 54.4-44.8 96-96 96zM320 60.8c-32 0-57.6 25.6-57.6 57.6s25.6 57.6 57.6 57.6c32 0 57.6-25.6 57.6-57.6s-25.6-57.6-57.6-57.6zM512 224h-384v576h384v-576zM326.4 547.2c-9.6 28.8-38.4 48-70.4 48-41.6 0-73.6-32-73.6-73.6s32-73.6 73.6-73.6c32 0 57.6 19.2 70.4 48h54.4v-48h48v48h25.6v48h-128zM259.2 496c-12.8 0-25.6 9.6-25.6 25.6 0 12.8 9.6 25.6 25.6 25.6 12.8 0 25.6-9.6 25.6-25.6 0-12.8-12.8-25.6-25.6-25.6z" />
<glyph unicode="&#xe914;" glyph-name="configuracion" horiz-adv-x="960" d="M480 304c-80 0-144 64-144 144s64 144 144 144 144-64 144-144c0-80-64-144-144-144zM784 409.6c3.2 12.8 3.2 25.6 3.2 38.4s0 25.6-3.2 41.6l86.4 67.2c6.4 6.4 9.6 16 6.4 25.6l-83.2 140.8c-3.2 9.6-16 12.8-25.6 9.6l-102.4-41.6c-22.4 16-44.8 28.8-70.4 41.6l-16 108.8c-3.2 9.6-9.6 16-19.2 16h-163.2c-9.6 0-19.2-6.4-19.2-16l-16-108.8c-25.6-9.6-48-25.6-70.4-41.6l-99.2 41.6c-9.6 3.2-22.4 0-25.6-9.6l-83.2-140.8c-6.4-9.6-3.2-19.2 6.4-25.6l86.4-67.2c-3.2-12.8-3.2-28.8-3.2-41.6s0-25.6 3.2-38.4l-86.4-67.2c-6.4-6.4-9.6-16-6.4-25.6l83.2-140.8c3.2-12.8 16-16 25.6-12.8l102.4 41.6c22.4-16 44.8-28.8 70.4-41.6l16-108.8c3.2-9.6 9.6-16 19.2-16h163.2c9.6 0 19.2 6.4 19.2 16l16 108.8c25.6 9.6 48 25.6 70.4 41.6l102.4-41.6c9.6-3.2 19.2 0 25.6 9.6l83.2 140.8c6.4 9.6 3.2 19.2-6.4 25.6l-89.6 70.4z" />
<glyph unicode="&#xe915;" glyph-name="compras" d="M720 547.2l-176 262.4c-6.4 12.8-19.2 16-32 16s-25.6-6.4-32-16l-176-262.4h-192c-22.4 0-38.4-19.2-38.4-38.4 0-3.2 0-6.4 0-9.6l102.4-371.2c9.6-32 41.6-57.6 76.8-57.6h518.4c35.2 0 67.2 25.6 76.8 57.6l102.4 371.2c0 3.2 0 6.4 0 9.6 0 22.4-19.2 38.4-38.4 38.4h-192zM393.6 547.2l118.4 176 118.4-176h-236.8zM512 230.4c-44.8 0-80 35.2-80 80s35.2 80 80 80 80-35.2 80-80c0-44.8-35.2-80-80-80z" />
<glyph unicode="&#xe916;" glyph-name="comprobante" horiz-adv-x="896" d="M771.2 816l-64 48-64-48-67.2 48-64-48-64 48-64-48-64 48-64-48-67.2 48-64-48-60.8 48v-832l60.8 48 67.2-48 60.8 48 70.4-48 60.8 48 70.4-48 60.8 48 70.4-48 60.8 48 70.4-48 60.8 48 54.4-48v832l-60.8-48zM704 224h-512v96h512v-96zM704 384h-512v96h512v-96zM704 544h-512v96h512v-96z" />
<glyph unicode="&#xe917;" glyph-name="si-no" horiz-adv-x="992" d="M393.6 592l-185.6-182.4-70.4 70.4-51.2-54.4 121.6-121.6 236.8 236.8zM928 544l-51.2 54.4-99.2-99.2-96 99.2-54.4-54.4 99.2-96-99.2-96 54.4-54.4 96 99.2 99.2-99.2 51.2 54.4-96 96zM480 726.4h60.8v-556.8h-60.8v556.8z" />
<glyph unicode="&#xe918;" glyph-name="cajero-touch" horiz-adv-x="992" d="M448 345.6c0 0 0 0 0 0 0-3.2 0-6.4 3.2-9.6s3.2-9.6 6.4-16h12.8c-9.6 9.6-19.2 22.4-22.4 25.6zM569.6 121.6c6.4-12.8 32-57.6 121.6-57.6 0 0 12.8 0 12.8 0v0c32 0 83.2 19.2 105.6 54.4 16 25.6 9.6 54.4 9.6 54.4v275.2l-3.2 3.2v-67.2h-80v64l-3.2 3.2v-67.2h-156.8v-64h128v-160h-156.8c9.6-19.2 19.2-32 19.2-35.2l3.2-3.2zM502.4 384c3.2-3.2 6.4-3.2 9.6-6.4v6.4h-9.6zM64 864v-864h627.2c-128 0-169.6 70.4-179.2 96-6.4 9.6-19.2 35.2-35.2 64h-188.8v160h102.4c-6.4 22.4-6.4 48 6.4 64h-108.8v352h416v-230.4c9.6 3.2 16 6.4 28.8 6.4h3.2c16 0 28.8-6.4 38.4-12.8 9.6 9.6 25.6 12.8 38.4 12.8h-44.8v96h96v-96h-48c35.2 0 64-28.8 64-64v-272c0-3.2 0-44.8-22.4-86.4-22.4-38.4-70.4-86.4-166.4-86.4h236.8v860.8h-864zM224 384h-96v96h96v-96zM224 512h-96v96h96v-96zM224 640h-96v96h96v-96zM864 640h-96v96h96v-96zM608 592v28.8c0 19.2-12.8 32-32 32h-3.2c-19.2 0-32-16-32-32v-332.8c-35.2 38.4-57.6 80-80 83.2-28.8 6.4-54.4-16-35.2-54.4s118.4-208 118.4-211.2c12.8-32 54.4-76.8 153.6-76.8 156.8 0 156.8 140.8 156.8 140.8v201.6c0 0 0 0 0 0v76.8c0 19.2-16 32-32 32h-3.2c-19.2 0-32-16-32-32v-38.4h-19.2v38.4c0 19.2-16 32-32 32h-3.2c-19.2 0-32-16-32-32v-38.4h-12.8v38.4c0 19.2-16 32-32 32h-3.2c-19.2 0-32-16-32-32v-38.4h-12.8v182.4z" />
<glyph unicode="&#xe919;" glyph-name="accion-pagar" horiz-adv-x="736" d="M508.8 352c-89.6 0-179.2 0-268.8 0 0 9.6 3.2 19.2 3.2 25.6 6.4 32 16 51.2 38.4 73.6 12.8 12.8 25.6 28.8 35.2 48 12.8 25.6 6.4 51.2-9.6 76.8-9.6 16-22.4 32-38.4 44.8-32 28.8-48 64-44.8 108.8 6.4 64 44.8 112 105.6 128 83.2 22.4 166.4-32 179.2-118.4 6.4-44.8-6.4-83.2-35.2-115.2-9.6-9.6-22.4-22.4-32-32-12.8-16-22.4-32-25.6-54.4-3.2-19.2 0-38.4 12.8-54.4 9.6-16 22.4-28.8 35.2-41.6 25.6-25.6 41.6-51.2 44.8-86.4 0 0 0 0 0-3.2zM656 160c-192 0-380.8 0-572.8 0 0 51.2 0 108.8 0 160 192 0 380.8 0 572.8 0 0-51.2 0-108.8 0-160zM112 32c0 25.6 0 67.2 0 92.8 166.4 0 345.6 0 512 0 0-25.6 0-67.2 0-92.8-166.4 0-345.6 0-512 0z" />
<glyph unicode="&#xe91a;" glyph-name="consulta-saldo" d="M576 390.4v-128c32 12.8 48 35.2 48 64 0 32-16 51.2-48 64zM432 566.4c0-25.6 16-48 48-54.4v115.2c-32-3.2-48-22.4-48-60.8zM515.2 886.4c-243.2 0-441.6-198.4-441.6-444.8 0-243.2 198.4-441.6 441.6-441.6s444.8 198.4 444.8 441.6c0 246.4-201.6 444.8-444.8 444.8zM576 179.2v-51.2h-96v51.2c-64 9.6-115.2 38.4-140.8 89.6-3.2 3.2-12.8 12.8-12.8 12.8l73.6 48c0 0 12.8-16 16-19.2 16-22.4 35.2-44.8 67.2-44.8v153.6c-32 16-137.6 48-137.6 147.2 0 76.8 41.6 134.4 137.6 147.2v22.4h96v-22.4c64-3.2 89.6-35.2 121.6-76.8l9.6-19.2-70.4-51.2-9.6 19.2c-16 19.2-19.2 35.2-51.2 38.4v-137.6c32-12.8 134.4-44.8 134.4-150.4-3.2-83.2-73.6-144-137.6-156.8z" />
<glyph unicode="&#xe91b;" glyph-name="consulta-movimientos" d="M515.2 886.4c-243.2 0-441.6-198.4-441.6-444.8 0-243.2 198.4-441.6 441.6-441.6s444.8 198.4 444.8 441.6c0 246.4-201.6 444.8-444.8 444.8zM537.6 153.6c-64 0-128 22.4-182.4 60.8l-9.6 9.6 60.8 60.8 9.6-6.4c35.2-25.6 80-41.6 121.6-41.6 115.2 0 211.2 89.6 211.2 208 0 115.2-92.8 208-211.2 208-112 0-204.8-112-211.2-208h112l-156.8-156.8-153.6 160h112c6.4 160 137.6 294.4 297.6 294.4 163.2 0 297.6-128 297.6-294.4 0-163.2-134.4-294.4-297.6-294.4zM672 480v-32h-160v32h160zM512 512v32h96v-32h-96zM640 416v-32h-128v32h128z" />
<glyph unicode="&#xe91c;" glyph-name="consultas" horiz-adv-x="1056" d="M662.4 464l-38.4-41.6c-32-32-51.2-57.6-51.2-124.8h-89.6v22.4c0 48 19.2 92.8 51.2 124.8l54.4 54.4c16 16 25.6 38.4 25.6 64 0 48-38.4 89.6-89.6 89.6-48 0-89.6-38.4-89.6-89.6h-83.2c0 99.2 80 176 176 176s176-76.8 176-172.8c0-41.6-16-76.8-41.6-102.4zM572.8 121.6h-89.6v89.6h89.6v-89.6zM528 873.6c-243.2 0-441.6-198.4-441.6-441.6s198.4-441.6 441.6-441.6 441.6 198.4 441.6 441.6c0 243.2-198.4 441.6-441.6 441.6z" />
<glyph unicode="&#xe91d;" glyph-name="tarjeta90" horiz-adv-x="832" d="M256 800v-704h-96v704h96zM672 790.4v-681.6h-256v681.6h256zM73.6 790.4v-681.6c0-48 38.4-86.4 86.4-86.4h512c48 0 86.4 38.4 86.4 86.4v681.6c0 48-38.4 86.4-86.4 86.4h-512c-48-3.2-86.4-41.6-86.4-86.4z" />
<glyph unicode="&#xe91e;" glyph-name="cuenta" horiz-adv-x="960" d="M864 396.8c-6.4-19.2-25.6-32-44.8-32-3.2 0-6.4 0-9.6 0-6.4 0-9.6 0-12.8-9.6-12.8-67.2-48-118.4-99.2-163.2-3.2-3.2-6.4-6.4-6.4-12.8 0-19.2 0-41.6 0-60.8 0-22.4-16-38.4-38.4-38.4-25.6 0-48 0-73.6 0-19.2 0-38.4 12.8-38.4 44.8-38.4-6.4-73.6-6.4-112 0 0-3.2 0-3.2 0-6.4 0-22.4-16-35.2-38.4-38.4-25.6 0-48 0-73.6 0-22.4 0-38.4 16-38.4 38.4s0 41.6 0 64c0 3.2 0 6.4-6.4 9.6-38.4 32-70.4 70.4-89.6 118.4-3.2 6.4-3.2 6.4-9.6 6.4-16 0-28.8 0-44.8 0-22.4 3.2-41.6 25.6-41.6 48 0 38.4 0 73.6 0 112 0 28.8 22.4 51.2 51.2 51.2 16 0 28.8 0 44.8 0 3.2 0 6.4 0 9.6 6.4 16 32 35.2 57.6 60.8 83.2 3.2 3.2 3.2 6.4 3.2 9.6 6.4 35.2 9.6 70.4 16 102.4 12.8 19.2 28.8 25.6 48 16 28.8-19.2 57.6-35.2 86.4-54.4 3.2-3.2 6.4-6.4 9.6-9.6 22.4-51.2 70.4-83.2 124.8-80 41.6 3.2 73.6 19.2 99.2 48 9.6 9.6 12.8 12.8 25.6 3.2 70.4-44.8 118.4-105.6 134.4-185.6 0 0 0-3.2 3.2-6.4 6.4 0 9.6 0 16 0 22.4 0 41.6-12.8 48-35.2 0-6.4 0-22.4-3.2-28.8zM371.2 515.2c0 28.8-25.6 54.4-57.6 54.4s-54.4-25.6-54.4-57.6c0-28.8 25.6-54.4 54.4-54.4 32 0 57.6 25.6 57.6 57.6zM537.6 643.2c48 0 86.4 38.4 86.4 86.4s-38.4 86.4-86.4 86.4c-48 0-86.4-38.4-86.4-86.4-3.2-44.8 35.2-86.4 86.4-86.4z" />
<glyph unicode="&#xe91f;" glyph-name="deposito" horiz-adv-x="960" d="M790.4 352h-131.2v185.6h-105.6l169.6 160 169.6-160h-105.6v-185.6zM512 652.8c0 28.8-22.4 51.2-51.2 51.2h-313.6c-28.8 0-51.2-22.4-51.2-51.2v-409.6c0-28.8 22.4-51.2 51.2-51.2h313.6c28.8 0 51.2 22.4 51.2 51.2v409.6zM160 256v384h227.2l-121.6-192 121.6-192h-227.2zM448 249.6l-121.6 188.8 121.6 188.8v-377.6zM848 822.4h-739.2v38.4h739.2v-38.4zM838.4 896h-716.8c-51.2 0-57.6-25.6-57.6-54.4v0c0-28.8 9.6-54.4 57.6-54.4h716.8c48 0 57.6 25.6 57.6 54.4v0c0 28.8-9.6 54.4-57.6 54.4z" />
<glyph unicode="&#xe920;" glyph-name="deposito-cta-propia" horiz-adv-x="928" d="M758.4 694.4c0-40.648-32.952-73.6-73.6-73.6s-73.6 32.952-73.6 73.6c0 40.648 32.952 73.6 73.6 73.6s73.6-32.952 73.6-73.6zM684.8 579.2c-51.2 0-150.4-25.6-150.4-73.6v-22.4h300.8v22.4c0 51.2-99.2 73.6-150.4 73.6zM64 96v672h448v-672h-448zM176 432c0 60.8 51.2 112 112 112s112-51.2 112-112-51.2-112-112-112c-60.8 0-112 48-112 112zM137.6 243.2c41.6 0 73.6-32 73.6-73.6h150.4c0 41.6 32 73.6 73.6 73.6v374.4c-41.6 0-73.6 32-73.6 73.6h-147.2c0-41.6-32-73.6-73.6-73.6v-374.4zM742.4 96h-112v160h-89.6l147.2 137.6 144-137.6h-89.6v-160z" />
<glyph unicode="&#xe921;" glyph-name="deposito-cta-terceros" horiz-adv-x="896" d="M684.8 732.8c22.4 0 38.4-16 38.4-38.4s-16-38.4-38.4-38.4c-22.4 0-38.4 16-38.4 38.4 0 19.2 16 38.4 38.4 38.4zM684.8 563.2c54.4 0 115.2-25.6 115.2-38.4v-41.6h-227.2v41.6c0 12.8 57.6 38.4 112 38.4zM684.8 768c-41.6 0-73.6-32-73.6-73.6s32-73.6 73.6-73.6c41.6 0 73.6 32 73.6 73.6 3.2 38.4-32 73.6-73.6 73.6zM684.8 598.4c-51.2 0-144-25.6-144-73.6v-76.8h284.8v76.8c0 48-89.6 73.6-140.8 73.6zM64 96v672h448v-672h-448zM176 432c0 60.8 51.2 112 112 112s112-51.2 112-112-51.2-112-112-112c-60.8 0-112 48-112 112zM137.6 243.2c41.6 0 73.6-32 73.6-73.6h150.4c0 41.6 32 73.6 73.6 73.6v374.4c-41.6 0-73.6 32-73.6 73.6h-147.2c0-41.6-32-73.6-73.6-73.6v-374.4zM742.4 96h-112v160h-89.6l147.2 137.6 144-137.6h-89.6v-160z" />
<glyph unicode="&#xe922;" glyph-name="deposito-efectivo" horiz-adv-x="960" d="M64 96v672h448v-672h-448zM176 432c0 60.8 51.2 112 112 112s112-51.2 112-112-51.2-112-112-112c-60.8 0-112 51.2-112 112zM137.6 246.4c41.6 0 73.6-32 73.6-73.6h150.4c0 41.6 32 73.6 73.6 73.6v371.2c-41.6 0-73.6 32-73.6 73.6h-147.2c0-41.6-32-73.6-73.6-73.6v-371.2zM787.2 422.4h-131.2v185.6h-105.6l169.6 160 169.6-160h-105.6v-185.6z" />
<glyph unicode="&#xe923;" glyph-name="desbloqueado" horiz-adv-x="768" d="M617.6 576h-41.6v86.4c0 108.8-83.2 195.2-192 195.2s-195.2-76.8-195.2-185.6h73.6c0 67.2 54.4 112 121.6 112s118.4-54.4 118.4-121.6v-86.4h-352c-41.6 0-86.4-28.8-86.4-70.4v-387.2c0-44.8 44.8-86.4 86.4-86.4h467.2c41.6 0 86.4 41.6 86.4 86.4v387.2c0 41.6-44.8 70.4-86.4 70.4zM384 233.6c-41.6 0-76.8 35.2-76.8 76.8s35.2 76.8 76.8 76.8 76.8-35.2 76.8-76.8c0-41.6-35.2-76.8-76.8-76.8z" />
<glyph unicode="&#xe924;" glyph-name="borrar" d="M886.4 768h-560c-25.6 0-48-12.8-60.8-32l-201.6-304 201.6-304c12.8-19.2 32-32 60.8-32h560c41.6 0 73.6 32 73.6 73.6v524.8c0 41.6-32 73.6-73.6 73.6zM774.4 297.6l-51.2-51.2-134.4 134.4-134.4-134.4-51.2 51.2 134.4 134.4-134.4 134.4 51.2 51.2 134.4-134.4 134.4 134.4 51.2-51.2-134.4-134.4z" />
<glyph unicode="&#xe925;" glyph-name="desplegable" horiz-adv-x="960" d="M896 608l-96 96-320-316.8-316.8 316.8-96-96 416-416 412.8 416z" />
<glyph unicode="&#xe926;" glyph-name="cuenta-destacada" d="M544 640c0 89.6-70.4 160-160 160s-160-70.4-160-160c0-89.6 70.4-160 160-160s160 70.4 160 160zM64 224v-96h640v96c0 105.6-214.4 160-320 160s-320-54.4-320-160zM825.6 524.8l-41.6 105.6-48-105.6-121.6-6.4 99.2-73.6-35.2-115.2 105.6 67.2 105.6-67.2-35.2 118.4 89.6 73.6-118.4 3.2z" />
<glyph unicode="&#xe927;" glyph-name="disponible" d="M64 160h896v-96h-896v96zM544 569.6v137.6c19.2-3.2 44.8-19.2 60.8-38.4l12.8-19.2 67.2 51.2-12.8 19.2c-32 41.6-73.6 73.6-128 76.8v35.2h-96v-35.2c-96-12.8-137.6-70.4-137.6-147.2 0-99.2 105.6-131.2 137.6-147.2v-153.6c-22.4 0-44.8 22.4-60.8 44.8-3.2 3.2-12.8 19.2-12.8 19.2l-70.4-48c0 0 6.4-9.6 6.4-12.8 28.8-51.2 73.6-80 137.6-89.6v-38.4h96v38.4c64 12.8 134.4 73.6 134.4 156.8 0 102.4-105.6 137.6-134.4 150.4zM448 710.4v-115.2c-28.8 6.4-48 32-48 54.4 0 38.4 16 57.6 48 60.8zM592 412.8c0-28.8-16-51.2-48-64v128c32-16 48-35.2 48-64z" />
<glyph unicode="&#xe928;" glyph-name="dolares" horiz-adv-x="960" d="M579.2 467.2c-41.6 9.6-54.4 22.4-54.4 38.4 0 19.2 19.2 32 48 32 32 0 44.8-16 44.8-38.4h38.4c0 32-19.2 57.6-57.6 67.2v41.6h-54.4v-38.4c-35.2-6.4-60.8-28.8-60.8-64 0-41.6 35.2-60.8 83.2-73.6 44.8-9.6 54.4-25.6 54.4-41.6 0-12.8-9.6-32-48-32-35.2 0-51.2 16-54.4 38.4h-38.4c3.2-38.4 32-60.8 64-67.2v-41.6h54.4v38.4c35.2 6.4 60.8 25.6 60.8 64 3.2 51.2-41.6 67.2-80 76.8zM409.6 368c-3.2-6.4-9.6-9.6-12.8-12.8-6.4-3.2-12.8-3.2-19.2-3.2-9.6 0-16 3.2-19.2 9.6s-6.4 16-6.4 28.8v112h-54.4v-112c0-25.6 6.4-44.8 16-57.6s25.6-19.2 44.8-19.2c12.8 0 22.4 3.2 32 6.4 9.6 6.4 16 12.8 22.4 22.4l3.2-25.6h41.6v185.6h-51.2v-134.4zM64 729.6h832v-563.2h-832v563.2zM249.6 633.6c0-51.2-41.6-92.8-92.8-92.8v-185.6c51.2 0 92.8-41.6 92.8-92.8h460.8c0 51.2 41.6 92.8 92.8 92.8v185.6c-51.2 0-92.8 41.6-92.8 92.8h-460.8z" />
<glyph unicode="&#xe929;" glyph-name="donacion" horiz-adv-x="896" d="M150.4 832h598.4c44.8 0 83.2-38.4 83.2-86.4v-598.4c0-48-38.4-86.4-86.4-86.4h-595.2c-48 3.2-86.4 41.6-86.4 89.6v595.2c0 48 38.4 86.4 86.4 86.4zM448 233.6l32 28.8c108.8 99.2 182.4 166.4 182.4 246.4 0 67.2-51.2 118.4-118.4 118.4-38.4 0-73.6-16-96-44.8-22.4 28.8-57.6 44.8-96 44.8-67.2 0-118.4-51.2-118.4-118.4 0-80 73.6-147.2 182.4-246.4l32-28.8z" />
<glyph unicode="&#xe92a;" glyph-name="editar" horiz-adv-x="960" d="M736 521.6l-182.4 182.4-489.6-489.6v-182.4h182.4l489.6 489.6zM883.2 665.6c19.2 19.2 19.2 51.2 0 70.4l-115.2 115.2c-19.2 19.2-51.2 19.2-70.4 0l-96-96 182.4-182.4 99.2 92.8z" />
<glyph unicode="&#xe92b;" glyph-name="eliminar" horiz-adv-x="832" d="M768 704h-704v96h160l64 64h256l64-64h160v-96zM96 640h640v-544c0-25.6-9.6-48-28.8-67.2-16-19.2-41.6-28.8-67.2-28.8h-448c-25.6 0-51.2 9.6-67.2 28.8-19.2 19.2-28.8 41.6-28.8 67.2v544z" />
<glyph unicode="&#xe92c;" glyph-name="empresa" horiz-adv-x="896" d="M537.6 646.4h-176v73.6h176v-73.6zM758.4 646.4h-163.2v86.4c0 32-25.6 57.6-57.6 57.6h-172.8c-32 0-57.6-25.6-57.6-57.6v-86.4h-169.6c-41.6 0-73.6-32-73.6-73.6v-396.8c0-41.6 32-73.6 73.6-73.6h617.6c41.6 0 73.6 32 73.6 73.6v396.8c0 41.6-32 73.6-70.4 73.6z" />
<glyph unicode="&#xe92d;" glyph-name="en-auto" horiz-adv-x="960" d="M800 764.8c-9.6 28.8-35.2 60.8-67.2 60.8h-508.8c-32 0-57.6-35.2-67.2-60.8l-89.6-278.4v-377.6c0-25.6 16-48 41.6-48h54.4c25.6 0 32 22.4 32 48v51.2h572.8v-38.4c0-25.6 12.8-57.6 38.4-57.6h48c25.6 0 41.6 22.4 41.6 48v374.4l-96 278.4zM224 307.2c-38.4 0-70.4 25.6-70.4 64s32 73.6 70.4 73.6c38.4 0 70.4-35.2 70.4-73.6s-32-64-70.4-64zM736 300.8c-38.4 0-70.4 32-70.4 70.4s32 70.4 70.4 70.4c38.4 0 70.4-32 70.4-70.4-3.2-38.4-32-70.4-70.4-70.4zM153.6 512l70.4 224h512l70.4-224h-652.8z" />
<glyph unicode="&#xe92e;" glyph-name="en-pie" horiz-adv-x="640" d="M377.6 726.4c38.4 0 67.2 32 67.2 67.2 0 38.4-32 67.2-67.2 67.2-38.4 0-67.2-32-67.2-67.2-3.2-38.4 28.8-67.2 67.2-67.2zM380.8 515.2h195.2v64h-147.2l-76.8 105.6c-12.8 19.2-32 32-54.4 32-6.4 0-12.8 0-19.2-3.2l-214.4-64v-198.4h64v140.8l92.8 25.6-147.2-582.4h67.2l108.8 310.4 86.4-118.4v-192h80v246.4l-102.4 172.8 28.8 108.8 38.4-48z" />
<glyph unicode="&#xe92f;" glyph-name="entrar" horiz-adv-x="992" d="M422.4 281.6l67.2-67.2 233.6 233.6-233.6 233.6-67.2-67.2 121.6-121.6h-451.2v-92.8h451.2l-121.6-118.4zM835.2 832h-646.4c-51.2 0-92.8-41.6-92.8-92.8v-150.4h89.6v150.4h652.8v-614.4h-652.8v182.4h-89.6v-182.4c0-51.2 41.6-92.8 92.8-92.8h646.4c51.2 0 92.8 41.6 92.8 92.8v614.4c0 51.2-41.6 92.8-92.8 92.8z" />
<glyph unicode="&#xe930;" glyph-name="envio-recepcion" horiz-adv-x="960" d="M480 854.4c-224 0-406.4-182.4-406.4-406.4s182.4-406.4 406.4-406.4 406.4 182.4 406.4 406.4-182.4 406.4-406.4 406.4zM256 569.6l144 144 144-144h-102.4v-163.2h-80v163.2h-105.6zM704 326.4l-144-144-144 144h102.4v163.2h80v-163.2h105.6z" />
<glyph unicode="&#xe931;" glyph-name="cancelar" horiz-adv-x="896" d="M816 688l-128 128-240-240-240 240-128-128 240-240-240-240 128-128 240 240 240-240 128 128-240 240z" />
<glyph unicode="&#xe932;" glyph-name="euros" horiz-adv-x="960" d="M480 540.8c9.6 12.8 22.4 16 38.4 16 6.4 0 16 0 25.6-3.2 9.6 0 16-3.2 22.4-6.4l3.2 48c-9.6 3.2-19.2 3.2-25.6 6.4-9.6 0-16 3.2-25.6 3.2-35.2 0-64-9.6-83.2-32-22.4-19.2-32-44.8-32-73.6v-3.2h-32v-41.6h32v-25.6h-32v-41.6h32v-3.2c0-28.8 9.6-51.2 32-70.4s51.2-28.8 83.2-28.8c9.6 0 16 0 25.6 3.2 9.6 0 16 3.2 25.6 6.4l-3.2 48c-6.4-3.2-16-3.2-22.4-6.4s-16-3.2-25.6-3.2c-16 0-32 6.4-41.6 16s-16 22.4-16 35.2v3.2h92.8v41.6h-92.8v25.6h92.8v41.6h-92.8v3.2c3.2 19.2 9.6 32 19.2 41.6zM64 729.6h832v-563.2h-832v563.2zM249.6 633.6c0-51.2-41.6-92.8-92.8-92.8v-185.6c51.2 0 92.8-41.6 92.8-92.8h460.8c0 51.2 41.6 92.8 92.8 92.8v185.6c-51.2 0-92.8 41.6-92.8 92.8h-460.8z" />
<glyph unicode="&#xe933;" glyph-name="confirmar" d="M825.6 803.2l-451.2-451.2-176 172.8-128-128 304-304 579.2 582.4z" />
<glyph unicode="&#xe934;" glyph-name="extraccion" horiz-adv-x="960" d="M649.6 704h131.2v-185.6h105.6l-169.6-160-169.6 160h105.6v185.6zM96 160v544h361.6v-544h-361.6zM185.6 432c0 51.2 41.6 89.6 89.6 89.6 51.2 0 89.6-41.6 89.6-89.6s-41.6-89.6-89.6-89.6c-48 0-89.6 38.4-89.6 89.6zM156.8 281.6c32 0 60.8-25.6 60.8-60.8h121.6c0 32 25.6 60.8 60.8 60.8v300.8c-32 0-60.8 25.6-60.8 60.8h-121.6c0-32-25.6-60.8-60.8-60.8v-300.8zM851.2 822.4h-739.2v38.4h739.2v-38.4zM838.4 896h-716.8c-51.2 0-57.6-25.6-57.6-54.4v0c0-28.8 9.6-54.4 57.6-54.4h716.8c48 0 57.6 25.6 57.6 54.4v0c0 28.8-9.6 54.4-57.6 54.4z" />
<glyph unicode="&#xe935;" glyph-name="factura" horiz-adv-x="704" d="M419.2 800h-284.8c-38.4 0-70.4-28.8-70.4-67.2v-566.4c0-41.6 48-70.4 86.4-70.4h409.6c38.4 0 80 32 80 70.4v425.6l-220.8 208zM288 220.8v-28.8h-64v28.8c-32 6.4-70.4 35.2-70.4 67.2h44.8c3.2-32 19.2-38.4 57.6-38.4 44.8 0 54.4 22.4 54.4 35.2 0 19.2-9.6 35.2-57.6 48-60.8 16-96 38.4-96 83.2 0 38.4 35.2 64 67.2 70.4v57.6h64v-57.6c32-9.6 57.6-38.4 57.6-70.4h-41.6c0 0-12.8 38.4-48 38.4-32 0-54.4-16-54.4-38.4 0-19.2 12.8-32 57.6-41.6 44.8-12.8 96-32 96-86.4 0-38.4-35.2-60.8-67.2-67.2zM384 576v176l195.2-176h-195.2z" />
<glyph unicode="&#xe936;" glyph-name="favorito" horiz-adv-x="960" d="M480 214.4l249.6-150.4-67.2 284.8 220.8 192-291.2 25.6-112 265.6-115.2-268.8-291.2-25.6 220.8-192-64-281.6 249.6 150.4z" />
<glyph unicode="&#xe937;" glyph-name="fecha" horiz-adv-x="864" d="M230.4 505.6h176v-176h-176zM723.2 768h-19.2v96h-96v-96h-320v96h-96v-96h-41.6c-44.8 0-86.4-35.2-86.4-80v-572.8c0-44.8 41.6-83.2 86.4-83.2h572.8c44.8 0 76.8 38.4 76.8 83.2v572.8c0 44.8-32 80-76.8 80zM704 128h-544v448h544v-448z" />
<glyph unicode="&#xe938;" glyph-name="flujo" horiz-adv-x="960" d="M896 342.4l-118.4-118.4-150.4 150.4-73.6-73.6 150.4-150.4-118.4-118.4h310.4v310.4zM896 550.4v313.6h-313.6l121.6-118.4-246.4-243.2h-393.6v-105.6h438.4l275.2 275.2 118.4-121.6z" />
<glyph unicode="&#xe939;" glyph-name="giftcard" horiz-adv-x="800" d="M678.4 768h-550.4c-35.2 0-67.2-28.8-67.2-67.2l3.2-355.2c0-38.4 28.8-89.6 67.2-89.6h156.8v-160l128 67.2 128-67.2v160h134.4c35.2 0 57.6 51.2 57.6 89.6l-3.2 355.2c0 38.4-19.2 67.2-54.4 67.2zM672 352h-544v64h544v-64zM672 512h-544v192h544v-192z" />
<glyph unicode="&#xe93a;" glyph-name="giftcard2" horiz-adv-x="896" d="M748.8 681.6h-83.2c6.4 12.8 6.4 25.6 6.4 38.4 0 60.8-48 112-112 112-38.4 0-73.6-19.2-92.8-51.2l-19.2-25.6-19.2 25.6c-19.2 32-54.4 51.2-92.8 51.2-64 0-112-51.2-112-112 0-12.8 0-25.6 6.4-38.4h-83.2c-41.6 0-73.6-35.2-73.6-73.6v-412.8c0-41.6 35.2-73.6 73.6-73.6h601.6c41.6 0 73.6 35.2 73.6 73.6v412.8c0 41.6-32 73.6-73.6 73.6zM560 758.4c19.2 0 38.4-16 38.4-38.4s-16-38.4-38.4-38.4-38.4 16-38.4 38.4 19.2 38.4 38.4 38.4zM336 758.4c19.2 0 38.4-16 38.4-38.4s-16-38.4-38.4-38.4-38.4 16-38.4 38.4 16 38.4 38.4 38.4zM748.8 192h-601.6v73.6h601.6v-73.6zM748.8 380.8h-601.6v224h192l-76.8-105.6 60.8-44.8 89.6 121.6 38.4 51.2 38.4-51.2 89.6-121.6 60.8 44.8-83.2 108.8h192v-227.2z" />
<glyph unicode="&#xe93b;" glyph-name="guardar" horiz-adv-x="960" d="M512 864h128v-192h-128v192zM704 864v0-256h-416v256h-160c-35.2 0-64-28.8-64-60.8v-707.2c0-35.2 28.8-64 60.8-64h707.2c35.2 0 60.8 28.8 60.8 60.8v560c0 12.8-6.4 25.6-12.8 32l-176 179.2z" />
<glyph unicode="&#xe93c;" glyph-name="hombre" horiz-adv-x="768" d="M544 595.2c0 89.6-70.4 160-160 160s-160-70.4-160-160c0-89.6 70.4-160 160-160s160 70.4 160 160zM64 176v-96h640v96c0 105.6-214.4 160-320 160s-320-54.4-320-160z" />
<glyph unicode="&#xe93d;" glyph-name="imprimir" horiz-adv-x="992" d="M736 832h-512v-160h512zM800 608h-608c-70.4 0-128-57.6-128-128v-256h160v-192h512v192h192v256c0 70.4-57.6 128-128 128zM672 128h-384v224h384v-224zM800 432c-22.4 0-41.6 19.2-41.6 41.6s19.2 41.6 41.6 41.6 41.6-19.2 41.6-41.6-19.2-41.6-41.6-41.6z" />
<glyph unicode="&#xe93e;" glyph-name="informacion" horiz-adv-x="960" d="M480 864c-230.4 0-416-185.6-416-416s185.6-416 416-416 416 185.6 416 416-185.6 416-416 416zM521.6 240h-83.2v249.6h83.2v-249.6zM521.6 572.8h-83.2v83.2h83.2v-83.2z" />
<glyph unicode="&#xe93f;" glyph-name="cardhole-out" d="M576 672h384v96h-896v-96h64zM192 672h32zM64 768h896v-96h-896v96zM726.4 537.6h131.2v-185.6h105.6l-169.6-160-169.6 160h105.6v185.6z" />
<glyph unicode="&#xe940;" glyph-name="inicio" d="M425.6 64v259.2h172.8v-259.2h217.6v345.6h128l-432 390.4-432-390.4h128v-345.6h217.6z" />
<glyph unicode="&#xe941;" glyph-name="internet" horiz-adv-x="960" d="M480 841.6c-217.6 0-393.6-176-393.6-393.6s176-393.6 393.6-393.6c217.6 0 393.6 176 393.6 393.6s-176 393.6-393.6 393.6zM752 604.8h-115.2c-12.8 48-32 96-54.4 140.8 70.4-25.6 131.2-76.8 169.6-140.8zM480 761.6c32-48 57.6-99.2 73.6-156.8h-150.4c19.2 57.6 44.8 108.8 76.8 156.8zM176 368c-6.4 25.6-9.6 51.2-9.6 80s3.2 54.4 9.6 80h131.2c-3.2-25.6-6.4-51.2-6.4-80s3.2-54.4 6.4-80h-131.2zM208 291.2h115.2c12.8-48 32-96 54.4-140.8-70.4 25.6-131.2 76.8-169.6 140.8zM323.2 604.8h-115.2c38.4 64 99.2 115.2 169.6 140.8-22.4-44.8-41.6-92.8-54.4-140.8zM480 134.4c-32 48-57.6 99.2-73.6 156.8h150.4c-19.2-57.6-44.8-108.8-76.8-156.8zM572.8 368h-182.4c-3.2 25.6-6.4 51.2-6.4 80s3.2 54.4 6.4 80h182.4c3.2-25.6 6.4-51.2 6.4-80s-3.2-54.4-6.4-80zM582.4 150.4c22.4 44.8 41.6 89.6 54.4 140.8h115.2c-38.4-64-99.2-115.2-169.6-140.8zM649.6 368c3.2 25.6 6.4 51.2 6.4 80s-3.2 54.4-6.4 80h131.2c6.4-25.6 9.6-51.2 9.6-80s-3.2-54.4-9.6-80h-131.2z" />
<glyph unicode="&#xe942;" glyph-name="limite-compra" d="M64 832h896v-96h-896v96zM675.2 438.4l-137.6 204.8c-6.4 9.6-16 12.8-25.6 12.8s-19.2-3.2-25.6-12.8l-137.6-204.8h-147.2c-16 0-32-12.8-32-32 0-3.2 0-6.4 0-9.6l80-288c6.4-25.6 32-44.8 60.8-44.8h406.4c28.8 0 54.4 19.2 60.8 44.8l80 288c0 3.2 0 6.4 0 9.6 0 16-12.8 32-32 32h-150.4zM419.2 438.4l92.8 137.6 92.8-137.6h-185.6zM512 188.8c-35.2 0-60.8 28.8-60.8 60.8s28.8 64 60.8 64 60.8-28.8 60.8-64-25.6-60.8-60.8-60.8z" />
<glyph unicode="&#xe943;" glyph-name="limite-extraccion" d="M64 832h896v-96h-896v96zM681.6 640h131.2v-185.6h105.6l-169.6-160-169.6 160h105.6v185.6zM128 96v544h361.6v-544h-361.6zM217.6 368c0 51.2 41.6 89.6 89.6 89.6 51.2 0 89.6-41.6 89.6-89.6s-41.6-89.6-89.6-89.6c-48 0-89.6 38.4-89.6 89.6zM188.8 217.6c32 0 60.8-25.6 60.8-60.8h121.6c0 32 25.6 60.8 60.8 60.8v300.8c-32 0-60.8 25.6-60.8 60.8h-121.6c0-32-25.6-60.8-60.8-60.8v-300.8z" />
<glyph unicode="&#xe944;" glyph-name="limite-pagos" d="M64 832h896v-96h-896v96zM470.4 441.6l-108.8 108.8 41.6 41.6 67.2-64 156.8 160 44.8-44.8zM272 384h480v-320h-480v320zM512 304c44.8 0 80-35.2 80-80s-35.2-80-80-80-80 35.2-80 80 35.2 80 80 80zM377.6 329.6c0-28.8-22.4-54.4-54.4-54.4v-105.6c28.8 0 54.4-22.4 54.4-54.4h265.6c0 28.8 22.4 54.4 54.4 54.4v105.6c-28.8 0-54.4 22.4-54.4 54.4h-265.6z" />
<glyph unicode="&#xe945;" glyph-name="mail" horiz-adv-x="960" d="M816 768h-672c-44.8 0-80-12.8-80-57.6v-470.4c0-44.8 35.2-80 80-80h672c44.8 0 80 35.2 80 80v470.4c0 44.8-35.2 57.6-80 57.6zM832 624l-352-192-352 192v80l352-192 352 192v-80z" />
<glyph unicode="&#xe946;" glyph-name="mas-opciones" horiz-adv-x="320" d="M160 278.4c48 0 86.4-38.4 86.4-86.4s-38.4-86.4-86.4-86.4-86.4 38.4-86.4 86.4 38.4 86.4 86.4 86.4zM160 534.4c48 0 86.4-38.4 86.4-86.4s-38.4-86.4-86.4-86.4-86.4 38.4-86.4 86.4 38.4 86.4 86.4 86.4zM160 790.4c48 0 86.4-38.4 86.4-86.4s-38.4-86.4-86.4-86.4-86.4 38.4-86.4 86.4 38.4 86.4 86.4 86.4z" />
<glyph unicode="&#xe947;" glyph-name="mas" d="M812.8 748.8c166.4-166.4 166.4-435.2 0-604.8-166.4-166.4-435.2-166.4-604.8 0-166.4 166.4-166.4 435.2 0 604.8 169.6 166.4 438.4 166.4 604.8 0zM771.2 489.6h-217.6v217.6h-86.4v-217.6h-214.4v-86.4h217.6v-217.6h86.4v217.6h217.6v86.4z" />
<glyph unicode="&#xe948;" glyph-name="menos" d="M812.8 748.8c166.4-166.4 166.4-435.2 0-604.8-166.4-166.4-435.2-166.4-604.8 0-166.4 166.4-166.4 435.2 0 604.8 169.6 166.4 438.4 166.4 604.8 0zM252.8 489.6v-86.4h518.4v86.4h-518.4z" />
<glyph unicode="&#xe949;" glyph-name="mensaje" horiz-adv-x="896" d="M758.4 800h-620.8c-41.6 0-73.6-35.2-73.6-73.6v-662.4l147.2 134.4h547.2c41.6 0 73.6 32 73.6 73.6v441.6c0 38.4-32 86.4-73.6 86.4zM672 352h-448v64h448v-64zM672 480h-448v64h448v-64zM672 608h-448v64h448v-64z" />
<glyph unicode="&#xe94a;" glyph-name="mujer" horiz-adv-x="768" d="M64 176v-96h640v96c0 105.6-214.4 160-320 160s-320-54.4-320-160zM444.8 412.8c41.6 0 163.2 9.6 185.6 51.2-124.8 16-54.4 227.2-131.2 307.2-22.4 25.6-44.8 44.8-86.4 44.8 0 0-22.4 0-25.6-6.4 0-3.2-3.2-3.2-3.2-3.2v0c0 0-3.2 3.2-3.2 3.2-3.2 6.4-25.6 6.4-25.6 6.4-44.8-3.2-64-22.4-86.4-44.8-76.8-80-6.4-291.2-131.2-307.2 25.6-41.6 144-51.2 185.6-51.2h121.6z" />
<glyph unicode="&#xe94b;" glyph-name="negocio" horiz-adv-x="960" d="M96 803.2h745.6v-92.8h-745.6v92.8zM841.6 672h-742.4l-35.2-227.2v-92.8h32v-288h480v288h160v-288h128v288h32v92.8l-54.4 227.2zM480 160h-288v192h288v-192z" />
<glyph unicode="&#xe94c;" glyph-name="pagos" horiz-adv-x="704" d="M275.2 464l-176 176 70.4 70.4 105.6-105.6 259.2 259.2 70.4-70.4zM80 384h544v-361.6h-544v361.6zM352 294.4c51.2 0 89.6-41.6 89.6-89.6 0-51.2-41.6-89.6-89.6-89.6s-89.6 41.6-89.6 89.6c0 48 38.4 89.6 89.6 89.6zM201.6 323.2c0-32-25.6-60.8-60.8-60.8v-121.6c32 0 60.8-25.6 60.8-60.8h300.8c0 32 25.6 60.8 60.8 60.8v121.6c-32 0-60.8 25.6-60.8 60.8h-300.8z" />
<glyph unicode="&#xe94d;" glyph-name="pesos" horiz-adv-x="960" d="M486.4 467.2c-41.6 9.6-54.4 22.4-54.4 38.4 0 19.2 19.2 32 48 32 32 0 44.8-16 44.8-38.4h38.4c0 32-19.2 57.6-57.6 67.2v41.6h-54.4v-38.4c-35.2-6.4-60.8-28.8-60.8-64 0-41.6 35.2-60.8 83.2-73.6 44.8-9.6 54.4-25.6 54.4-41.6 0-12.8-9.6-32-48-32-35.2 0-51.2 16-54.4 38.4h-38.4c3.2-38.4 32-60.8 64-67.2v-41.6h54.4v38.4c35.2 6.4 60.8 25.6 60.8 64 3.2 48-38.4 67.2-80 76.8zM64 729.6h832v-563.2h-832v563.2zM249.6 633.6c0-51.2-41.6-92.8-92.8-92.8v-185.6c51.2 0 92.8-41.6 92.8-92.8h460.8c0 51.2 41.6 92.8 92.8 92.8v185.6c-51.2 0-92.8 41.6-92.8 92.8h-460.8z" />
<glyph unicode="&#xe94e;" glyph-name="clave" horiz-adv-x="960" d="M281.6 387.2c-44.8 0-80 35.2-80 80s35.2 80 80 80c44.8 0 80-35.2 80-80s-35.2-80-80-80zM505.6 544c-32 92.8-121.6 160-224 160-131.2 0-217.6-105.6-217.6-236.8s86.4-243.2 217.6-243.2c102.4 0 192 67.2 224 160h166.4v-160h160v160h64v160h-390.4z" />
<glyph unicode="&#xe94f;" glyph-name="recarga-tel" horiz-adv-x="640" d="M355.2 368v-48h-64v44.8c-41.6 9.6-76.8 35.2-76.8 80h48c3.2-25.6 19.2-44.8 64-44.8 48 0 57.6 22.4 57.6 38.4 0 19.2-9.6 38.4-64 51.2-57.6 12.8-99.2 38.4-99.2 86.4 0 41.6 32 67.2 73.6 76.8v51.2h64v-48c44.8-9.6 67.2-44.8 67.2-80h-48c0 25.6-16 44.8-54.4 44.8-35.2 0-57.6-16-57.6-38.4 0-19.2 16-32 64-44.8s99.2-32 99.2-92.8c0-44.8-35.2-70.4-73.6-76.8zM480 864h-320c-51.2 0-96-41.6-96-96v-640c0-51.2 41.6-96 96-96h320c51.2 0 96 41.6 96 96v640c0 54.4-44.8 96-96 96zM320 60.8c-32 0-57.6 25.6-57.6 57.6s25.6 57.6 57.6 57.6c32 0 57.6-25.6 57.6-57.6s-25.6-57.6-57.6-57.6zM512 224h-384v576h384v-576z" />
<glyph unicode="&#xe950;" glyph-name="reconocimiento-billete" horiz-adv-x="960" d="M598.4 550.4c-3.2-12.8-6.4-28.8-16-41.6 64 0 128 0 192 0 12.8 0 25.6-9.6 25.6-22.4 0-16 12.8-28.8 32-32 12.8 0 22.4-12.8 22.4-25.6 0-28.8 0-57.6 0-86.4 0-12.8-9.6-22.4-22.4-22.4-16 0-28.8-12.8-32-28.8 0-12.8-12.8-22.4-25.6-22.4-51.2 0-102.4 0-153.6 0s-102.4 0-153.6 0c-16 0-25.6 9.6-25.6 22.4 0 16-12.8 28.8-32 28.8-12.8 0-22.4 12.8-22.4 22.4 0 6.4 0 12.8 0 22.4-12.8-3.2-25.6-6.4-41.6-9.6 0-41.6 0-86.4 0-128 182.4 0 364.8 0 547.2 0 0 108.8 0 214.4 0 323.2-96 0-195.2 0-294.4 0zM524.8 393.6c0-22.4 6.4-41.6 22.4-57.6 38.4-41.6 108.8-41.6 147.2-3.2 35.2 32 32 83.2-3.2 115.2-38.4 32-99.2 35.2-137.6 3.2-16-16-28.8-35.2-28.8-57.6zM310.4 736c-112 0-208-70.4-246.4-169.6 38.4-99.2 134.4-169.6 246.4-169.6s208 70.4 246.4 169.6c-38.4 99.2-134.4 169.6-246.4 169.6zM310.4 454.4c-60.8 0-112 51.2-112 112s51.2 112 112 112 112-51.2 112-112c0-60.8-51.2-112-112-112zM310.4 633.6c-38.4 0-67.2-28.8-67.2-67.2s28.8-67.2 67.2-67.2c38.4 0 67.2 28.8 67.2 67.2s-28.8 67.2-67.2 67.2z" />
<glyph unicode="&#xe951;" glyph-name="regalo" d="M896 448v-307.2c0-41.6-35.2-76.8-76.8-76.8h-614.4c-41.6 0-76.8 35.2-76.8 76.8v307.2c-22.4 0-38.4 16-38.4 38.4v115.2c0 41.6 35.2 76.8 76.8 76.8h121.6c-3.2 12.8-6.4 25.6-6.4 38.4 0 64 51.2 115.2 115.2 115.2 38.4 0 73.6-19.2 92.8-48v0l22.4-28.8 22.4 28.8c19.2 28.8 54.4 48 92.8 48 64 0 115.2-51.2 115.2-115.2 0-12.8-3.2-25.6-6.4-38.4h121.6c41.6 0 76.8-35.2 76.8-76.8v-115.2c0-22.4-16-38.4-38.4-38.4zM204.8 140.8h268.8v307.2h-268.8v-307.2zM819.2 140.8v307.2h-268.8v-307.2h268.8zM396.8 755.2c-22.4 0-38.4-16-38.4-38.4s16-38.4 38.4-38.4 38.4 16 38.4 38.4c0 22.4-16 38.4-38.4 38.4zM627.2 755.2c-22.4 0-38.4-16-38.4-38.4s16-38.4 38.4-38.4c22.4 0 38.4 16 38.4 38.4s-16 38.4-38.4 38.4zM166.4 601.6v-76.8h307.2v76.8h-307.2zM550.4 601.6v-76.8h307.2v76.8h-307.2z" />
<glyph unicode="&#xe952;" glyph-name="cardhole-in" d="M64 672h896v96h-896zM854.4 294.4h-131.2v185.6h-105.6l169.6 160 169.6-160h-105.6v-185.6z" />
<glyph unicode="&#xe953;" glyph-name="saldo" horiz-adv-x="640" d="M384 502.4v169.6c32-9.6 54.4-25.6 73.6-51.2l16-22.4 86.4 67.2-16 25.6c-38.4 51.2-96 83.2-160 96v44.8h-96v-44.8c-96-16-172.8-89.6-172.8-188.8 0-128 108.8-166.4 172.8-185.6v-195.2c-22.4 0-64 25.6-92.8 67.2l-16 19.2-92.8-60.8 16-22.4c57.6-67.2 121.6-99.2 185.6-112v-44.8h96v44.8c96 16 169.6 92.8 169.6 201.6 0 128-105.6 169.6-169.6 192zM288 678.4v-144c-32 12.8-60.8 38.4-60.8 70.4 0 44.8 28.8 64 60.8 73.6zM444.8 297.6c0-35.2-9.6-64-60.8-83.2v166.4c54.4-16 60.8-44.8 60.8-83.2z" />
<glyph unicode="&#xe954;" glyph-name="salir" horiz-adv-x="960" d="M576 281.6l118.4 118.4h-448v92.8h448l-118.4 121.6 67.2 64 230.4-230.4-230.4-230.4-67.2 64zM803.2 864c51.2 0 92.8-41.6 92.8-92.8v-214.4l-92.8 92.8v121.6h-646.4v-646.4h646.4v124.8l92.8 92.8v-214.4c0-51.2-41.6-92.8-92.8-92.8h-646.4c-51.2-3.2-92.8 38.4-92.8 89.6v646.4c0 51.2 41.6 92.8 92.8 92.8h646.4z" />
<glyph unicode="&#xe955;" glyph-name="sin-tarjeta" horiz-adv-x="896" d="M409.6 640h329.6v-64h-265.6l124.8-128h137.6v-137.6l92.8-96v457.6c0 32-19.2 60.8-57.6 60.8h-457.6l96-92.8zM787.2 160v0l-486.4 486.4-73.6 76.8-102.4 102.4c-12.8 12.8-32 12.8-44.8 0l-9.6-9.6c-12.8-12.8-12.8-32 0-44.8l54.4-54.4c0 0-6.4-3.2-6.4-3.2s0 0 0 0c-12.8-12.8-22.4-28.8-22.4-48v-448c0-32 25.6-57.6 60.8-57.6h515.2l96-86.4c12.8-12.8 32-12.8 44.8 0l9.6 9.6c12.8 12.8 12.8 32 0 44.8l-35.2 32zM192 640h6.4l67.2-67.2h-73.6v67.2zM534.4 304l48-48h-390.4v192h201.6l67.2-67.2 73.6-76.8z" />
<glyph unicode="&#xe956;" glyph-name="tarjeta" d="M864 608h-704v96h704v-96zM854.4 192h-684.8v256h681.6zM854.4 790.4h-684.8c-44.8 0-83.2-38.4-83.2-86.4v-512c0-48 38.4-86.4 86.4-86.4h681.6c48 0 86.4 38.4 86.4 86.4v512c-3.2 48-41.6 86.4-86.4 86.4z" />
<glyph unicode="&#xe957;" glyph-name="tiempo" d="M512 896c-246.4 0-448-201.6-448-448s201.6-448 448-448c246.4 0 448 201.6 448 448s-201.6 448-448 448zM841.6 448c0-182.4-147.2-329.6-329.6-329.6s-329.6 147.2-329.6 329.6 147.2 329.6 329.6 329.6 329.6-147.2 329.6-329.6zM544 672h-96v-275.2l249.6-150.4 48 80-201.6 118.4z" />
<glyph unicode="&#xe958;" glyph-name="total" horiz-adv-x="640" d="M572.8 784h-505.6v-83.2l272-252.8-272-252.8v-83.2h505.6v124.8h-294.4l211.2 211.2-211.2 211.2h294.4v124.8z" />
<glyph unicode="&#xe959;" glyph-name="touch" horiz-adv-x="608" d="M294.4 592v28.8c0 19.2-12.8 32-32 32h-3.2c-19.2 0-32-16-32-32v-332.8c-35.2 38.4-57.6 80-80 83.2-28.8 6.4-54.4-16-35.2-54.4s118.4-208 118.4-211.2c12.8-32 54.4-76.8 153.6-76.8 156.8 0 156.8 140.8 156.8 140.8v201.6c0 0 0 0 0 0v70.4c0 19.2-16 32-32 32h-3.2c-19.2 0-32-16-32-32v-38.4h-12.8v38.4c0 19.2-16 32-32 32h-3.2c-19.2 0-32-16-32-32v-38.4h-12.8v38.4c0 19.2-16 32-32 32h-3.2c-19.2 0-32-16-32-32v-38.4h-19.2v188.8zM259.2 780.8c-67.2 0-118.4-54.4-118.4-118.4 0-32 12.8-60.8 32-83.2 6.4-3.2 12.8-6.4 19.2-6.4s12.8 3.2 16 6.4c9.6 9.6 9.6 22.4 0 32-12.8 12.8-19.2 32-19.2 51.2 0 41.6 32 73.6 70.4 73.6s73.6-32 73.6-73.6c0-19.2-6.4-35.2-19.2-51.2-3.2-3.2-6.4-9.6-6.4-16s3.2-12.8 6.4-16c9.6-9.6 25.6-9.6 32 0 22.4 22.4 32 51.2 32 83.2 0 67.2-51.2 118.4-118.4 118.4zM259.2 844.8c-99.2 0-182.4-80-182.4-182.4 0-48 19.2-92.8 51.2-128 3.2-3.2 9.6-6.4 16-6.4s12.8 3.2 16 6.4c9.6 9.6 9.6 22.4 0 32-25.6 25.6-38.4 60.8-38.4 96 3.2 73.6 64 137.6 137.6 137.6s134.4-60.8 134.4-134.4c0-35.2-12.8-70.4-38.4-96-9.6-9.6-9.6-25.6 0-32 9.6-9.6 25.6-9.6 32 0 35.2 35.2 51.2 80 51.2 128 3.2 99.2-76.8 179.2-179.2 179.2z" />
<glyph unicode="&#xe95a;" glyph-name="transferencia" horiz-adv-x="896" d="M326.4 649.6c-51.2 0-89.6-41.6-89.6-89.6 0-38.4 22.4-64 54.4-76.8 3.2 12.8 12.8 32 28.8 32h76.8c12.8 0 22.4 28.8 22.4 51.2-3.2 48-44.8 83.2-92.8 83.2zM288 448h-115.2c0 32-12.8 51.2-44.8 51.2v121.6c32 0 44.8 22.4 44.8 54.4h300.8c0-32 35.2-54.4 67.2-54.4v-108.8h64v224h-540.8v-352h224v64zM332.8 326.4v131.2h320v105.6l160-169.6-160-169.6v105.6h-320z" />
<glyph unicode="&#xe95b;" glyph-name="transferencia-cta-propia" horiz-adv-x="960" d="M499.2 489.6c0-81.296-65.904-147.2-147.2-147.2s-147.2 65.904-147.2 147.2c0 81.296 65.904 147.2 147.2 147.2s147.2-65.904 147.2-147.2zM355.2 272c-96 0-291.2-48-291.2-147.2v-92.8h576v92.8c0 99.2-185.6 147.2-284.8 147.2zM796.8 540.8c0-37.114-30.086-67.2-67.2-67.2s-67.2 30.086-67.2 67.2c0 37.114 30.086 67.2 67.2 67.2s67.2-30.086 67.2-67.2zM729.6 438.4c-44.8 0-134.4-22.4-134.4-67.2v-19.2h268.8v19.2c0 44.8-89.6 67.2-134.4 67.2zM710.4 777.6c-32 28.8-76.8 48-124.8 48-83.2 0-156.8-54.4-182.4-131.2l44.8-16c19.2 57.6 73.6 99.2 137.6 99.2 35.2 0 67.2-12.8 92.8-35.2l-67.2-64h156.8v163.2l-57.6-64z" />
<glyph unicode="&#xe95c;" glyph-name="ubicacion" horiz-adv-x="704" d="M352 864c-163.2 0-288-115.2-288-281.6 0-224 288-550.4 288-550.4s288 326.4 288 550.4c0 166.4-124.8 281.6-288 281.6zM352 480c-54.4 0-96 41.6-96 96s41.6 96 96 96 96-41.6 96-96-41.6-96-96-96z" />
<glyph unicode="&#xe95d;" glyph-name="no-ubicacion" horiz-adv-x="896" d="M489.6 675.2c57.6 0 105.6-48 105.6-105.6 0-32-12.8-57.6-35.2-76.8l153.6-153.6c41.6 76.8 70.4 160 70.4 230.4 0 163.2-131.2 294.4-294.4 294.4-83.2 0-160-35.2-211.2-89.6l134.4-134.4c19.2 22.4 44.8 35.2 76.8 35.2zM675.2 268.8l-550.4 550.4-54.4-51.2 134.4-134.4c-6.4-22.4-6.4-41.6-6.4-64 0-220.8 294.4-547.2 294.4-547.2s70.4 76.8 140.8 182.4l140.8-140.8 54.4 54.4-153.6 150.4z" />
<glyph unicode="&#xe95e;" glyph-name="ultimos-movimientos" horiz-adv-x="1088" d="M544 380.8h192v-64h-192v64zM544 476.8h256v-64h-256v64zM544 572.8h160v-64h-160v64zM608 838.4c-214.4 0-390.4-166.4-400-390.4h-150.4l208-208 208 208h-150.4c9.6 160 131.2 275.2 281.6 275.2 156.8 0 281.6-121.6 281.6-278.4s-128-281.6-281.6-281.6c-57.6 0-115.2 19.2-163.2 54.4l-9.6 6.4-83.2-83.2 16-9.6c70.4-54.4 156.8-83.2 243.2-83.2 220.8 0 400 176 400 396.8s-179.2 393.6-400 393.6z" />
<glyph unicode="&#xe95f;" glyph-name="transaccion" horiz-adv-x="960" d="M582.4 188.8h-518.4v-102.4h518.4v102.4zM896 604.8h-832v-102.4h832v102.4zM64 291.2h832v102.4h-832v-102.4zM64 812.8v-102.4h832v102.4h-832z" />
<glyph unicode="&#xe960;" glyph-name="banelcomovil" d="M172.8 521.6l3.2 38.4c6.4 25.6 22.4 38.4 44.8 38.4h214.4c9.6 0 12.8-3.2 9.6-12.8l3.2-35.2c-6.4-22.4-19.2-35.2-38.4-35.2h-227.2c-6.4 0-9.6 3.2-9.6 6.4zM332.8 112c0-3.2 0-3.2 3.2-3.2h12.8c3.2 0 6.4 0 6.4 3.2l16 121.6c3.2 9.6 0 12.8-9.6 12.8h-6.4c-6.4 0-9.6-3.2-16-9.6l-44.8-89.6-9.6 32-12.8 60.8c0 6.4-6.4 9.6-9.6 9.6h-9.6c-6.4 0-12.8-3.2-12.8-12.8l-16-124.8c0-3.2 0-3.2 3.2-3.2h12.8c3.2 0 3.2 0 3.2 3.2l12.8 89.6 6.4-25.6 9.6-41.6c0-6.4 3.2-9.6 9.6-9.6h9.6c3.2 0 9.6 3.2 12.8 9.6l22.4 44.8 16 25.6-9.6-92.8zM227.2 339.2l3.2 38.4c6.4 25.6 22.4 38.4 48 38.4h137.6c9.6 0 12.8-3.2 9.6-12.8l-3.2-38.4c-6.4-22.4-19.2-35.2-41.6-35.2h-147.2c-6.4 0-9.6 3.2-6.4 9.6zM288 697.6c-6.4 0-9.6 3.2-6.4 9.6l3.2 38.4c6.4 25.6 22.4 38.4 44.8 38.4h137.6c6.4 0 9.6-3.2 9.6-12.8l-6.4-38.4c-3.2-22.4-16-35.2-38.4-35.2h-144zM454.4 246.4c-19.2 0-35.2-9.6-48-25.6s-19.2-38.4-19.2-64c0-35.2 16-51.2 51.2-51.2 19.2 0 38.4 9.6 48 25.6 12.8 16 19.2 38.4 19.2 64 0 35.2-19.2 51.2-51.2 51.2zM454.4 227.2c19.2 0 28.8-9.6 28.8-32 0-41.6-16-64-44.8-64-19.2 0-28.8 9.6-28.8 32 0 41.6 16 64 44.8 64zM448 268.8c0 0 0-3.2 0-3.2l3.2-6.4c0 0 0-3.2 3.2-3.2l38.4 16v3.2l-9.6 12.8h-3.2l-32-19.2zM572.8 790.4h150.4c83.2 0 124.8-35.2 124.8-102.4 0-48-22.4-83.2-64-102.4l-3.2-3.2c35.2-16 54.4-48 54.4-96 0-44.8-16-83.2-48-112s-73.6-41.6-124.8-41.6h-160c-25.6 0-38.4 12.8-32 38.4l54.4 377.6c9.6 25.6 22.4 38.4 48 41.6v0zM563.2 166.4l-12.8 76.8-3.2 3.2h-16c0 0-3.2 0-3.2-3.2l25.6-124.8c0-6.4 6.4-9.6 9.6-9.6h9.6c6.4 0 12.8 3.2 12.8 9.6l60.8 124.8v3.2h-19.2c-3.2 0-3.2 0-3.2-3.2l-38.4-76.8-9.6-32h-3.2l-9.6 32zM579.2 416h92.8c25.6 0 41.6 6.4 54.4 22.4 9.6 16 16 28.8 16 44.8 0 32-19.2 48-54.4 48h-89.6l-19.2-115.2zM608 614.4h83.2c35.2 0 54.4 19.2 54.4 51.2 0 22.4-12.8 35.2-38.4 35.2h-89.6l-9.6-86.4zM665.6 112l19.2 128c0 3.2 0 3.2-3.2 3.2h-16c0 0-3.2 0-3.2-3.2l-16-128c0-3.2 0-3.2 3.2-3.2h16c0 0 0 3.2 0 3.2zM732.8 108.8h54.4c0 0 3.2 0 3.2 3.2l3.2 12.8c0 0 0 3.2-3.2 3.2h-51.2c-9.6 0-16 6.4-12.8 16l12.8 99.2c3.2 3.2 3.2 3.2-3.2 3.2h-16c-3.2 0-3.2 0-3.2-3.2l-16-102.4c0-19.2 9.6-32 32-32z" />
<glyph unicode="&#xe961;" glyph-name="extracash" d="M102.4 473.6v198.4h102.4v-19.2h-83.2v-67.2h67.2l3.2-19.2h-70.4v-76.8h86.4v-19.2h-105.6zM240 668.8l19.2 3.2 54.4-80 54.4 80h22.4l-64-96 70.4-102.4-19.2-3.2c0 0-60.8 89.6-60.8 89.6s-57.6-89.6-57.6-89.6h-25.6l70.4 105.6-64 92.8zM496 652.8v-182.4h-19.2v182.4h-64v19.2h147.2l3.2-19.2h-67.2zM726.4 473.6l-19.2-3.2-64 89.6h-25.6v-89.6h-19.2v201.6h51.2c38.4 0 64-19.2 64-54.4 0-32-19.2-48-48-54.4l60.8-89.6zM646.4 652.8h-28.8v-76.8h25.6c28.8 0 48 12.8 48 38.4s-16 38.4-44.8 38.4zM902.4 470.4l-25.6 67.2h-86.4l-25.6-64h-19.2l76.8 198.4h19.2l76.8-198.4-16-3.2zM832 649.6l-35.2-96h73.6l-38.4 96zM230.4 224c-54.4 0-92.8 41.6-92.8 102.4s35.2 102.4 92.8 102.4c22.4 0 41.6-6.4 57.6-16l-3.2-28.8c-16 9.6-32 19.2-51.2 19.2-41.6 0-64-32-64-80s25.6-76.8 64-76.8c22.4 0 41.6 9.6 54.4 19.2l3.2-25.6c-12.8-9.6-35.2-16-60.8-16zM470.4 224l-22.4 60.8h-83.2l-22.4-60.8h-25.6l76.8 198.4h25.6l76.8-195.2-25.6-3.2zM406.4 393.6l-32-83.2h64l-32 83.2zM576 224c-22.4 0-41.6 6.4-54.4 12.8l3.2 28.8c12.8-9.6 32-16 51.2-16s35.2 9.6 35.2 28.8c0 19.2-9.6 25.6-38.4 38.4-38.4 16-51.2 28.8-51.2 57.6 0 32 25.6 51.2 60.8 51.2 19.2 0 35.2-3.2 44.8-12.8l-3.2-25.6c-9.6 9.6-25.6 16-41.6 16-22.4 0-32-12.8-32-25.6 0-16 6.4-22.4 38.4-35.2 38.4-19.2 51.2-32 51.2-60.8 0-35.2-25.6-57.6-64-57.6zM806.4 227.2v92.8h-102.4v-92.8h-25.6v198.4h25.6v-83.2h99.2v83.2h28.8v-198.4h-25.6z" />
<glyph unicode="&#xe962;" glyph-name="facebook" d="M851.2 819.2c19.2-16 28.8-38.4 28.8-67.2v-608c0-25.6-9.6-48-28.8-67.2s-41.6-28.8-67.2-28.8h-128v275.2h112v121.6h-121.6v64c0 16 9.6 25.6 25.6 25.6h96v134.4h-96c-44.8 0-80-16-108.8-48s-44.8-70.4-44.8-118.4v-60.8h-102.4v-121.6h99.2v-275.2h-275.2c-25.6 0-48 9.6-67.2 28.8s-28.8 41.6-28.8 67.2v608c0 25.6 9.6 48 28.8 67.2 19.2 22.4 41.6 32 67.2 32h544c25.6 0 48-9.6 67.2-28.8z" />
<glyph unicode="&#xe963;" glyph-name="pagomiscuentas" d="M73.6 406.4l6.4 48c0 12.8 6.4 25.6 19.2 35.2 9.6 9.6 22.4 16 38.4 16h272c9.6 0 16-6.4 16-19.2l-9.6-48c-6.4-28.8-22.4-41.6-51.2-41.6h-281.6c-9.6 0-12.8 3.2-9.6 9.6zM137.6 172.8l6.4 48c0 12.8 9.6 25.6 19.2 35.2 12.8 9.6 25.6 16 38.4 16h172.8c12.8 0 16-6.4 12.8-16l-6.4-48c-6.4-28.8-22.4-44.8-51.2-44.8h-179.2c-9.6-3.2-12.8 0-12.8 9.6zM201.6 636.8l9.6 48c6.4 35.2 25.6 51.2 57.6 51.2h172.8c9.6 0 16-6.4 16-16l-9.6-48c0-12.8-6.4-22.4-16-32s-19.2-12.8-32-12.8h-185.6c-6.4 0-12.8 3.2-12.8 9.6zM614.4 368l-25.6-192c0-12.8-6.4-19.2-19.2-19.2h-86.4c-12.8 0-16 6.4-16 19.2l73.6 512c3.2 32 19.2 48 54.4 48h192c54.4 0 96-16 121.6-44.8s41.6-67.2 41.6-118.4c0-22.4-3.2-41.6-9.6-60.8s-16-41.6-28.8-67.2c-12.8-22.4-38.4-44.8-70.4-57.6-32-16-73.6-22.4-118.4-22.4h-108.8zM652.8 627.2l-22.4-156.8h102.4c28.8 0 51.2 9.6 67.2 25.6s25.6 38.4 25.6 67.2c0 44.8-22.4 64-70.4 64h-102.4z" />
<glyph unicode="&#xe964;" glyph-name="banelco" d="M217.6 633.6h192c25.6 0 48 19.2 51.2 44.8l6.4 51.2c0 9.6-6.4 16-16 16h-179.2c-28.8 0-54.4-22.4-57.6-51.2l-6.4-51.2c-3.2-6.4 3.2-9.6 9.6-9.6zM620.8 416h121.6c48 0 70.4-25.6 70.4-64 0-32-19.2-89.6-92.8-89.6h-118.4l19.2 153.6zM652.8 633.6h115.2c32 0 54.4-16 54.4-44.8 0-54.4-44.8-70.4-73.6-70.4h-112l16 115.2zM592 748.8c-41.6 0-51.2-16-57.6-54.4l-70.4-492.8c-6.4-35.2 3.2-51.2 41.6-51.2h208c128 0 224 83.2 224 201.6 0 51.2-19.2 99.2-73.6 124.8v6.4c51.2 25.6 86.4 73.6 86.4 134.4 0 96-73.6 131.2-163.2 131.2h-195.2zM147.2 147.2h192c25.6 0 48 19.2 51.2 44.8l6.4 51.2c0 9.6-6.4 16-16 16h-176c-28.8 0-54.4-22.4-57.6-51.2l-9.6-48c0-6.4 3.2-12.8 9.6-12.8zM80 390.4h294.4c25.6 0 48 19.2 51.2 44.8l6.4 51.2c0 9.6-6.4 16-16 16h-281.6c-28.8 0-54.4-22.4-57.6-51.2l-6.4-51.2c-3.2-3.2 3.2-9.6 9.6-9.6z" />
<glyph unicode="&#xe965;" glyph-name="redcirrus" d="M864 649.6c-105.6 89.6-256 73.6-336 3.2 16-16 32-35.2 44.8-54.4s22.4-41.6 28.8-64c-6.4 0-12.8 0-19.2 0-16 38.4-38.4 73.6-70.4 105.6-32-32-54.4-67.2-70.4-108.8-6.4 0-12.8 0-22.4 0 12.8 48 38.4 86.4 73.6 121.6-89.6 80-246.4 86.4-352-16s-105.6-275.2 0-377.6c105.6-102.4 259.2-96 352-16-16 16-32 35.2-44.8 57.6-12.8 19.2-22.4 41.6-28.8 64 6.4 0 12.8 0 19.2 0 6.4-22.4 16-41.6 28.8-57.6 12.8-19.2 25.6-35.2 41.6-51.2 32 32 54.4 67.2 70.4 108.8 6.4 0 12.8 0 19.2 0-16-48-41.6-86.4-73.6-121.6 108.8-89.6 272-76.8 368 32 99.2 112 86.4 278.4-28.8 374.4zM307.2 499.2c-32 3.2-54.4-16-57.6-48 0-6.4 0-9.6 3.2-16 6.4-12.8 16-19.2 32-22.4 9.6 0 19.2 0 25.6 3.2 3.2 0 6.4 3.2 12.8 3.2-3.2-9.6-3.2-19.2-6.4-28.8-22.4-6.4-44.8-9.6-67.2 0s-35.2 28.8-35.2 54.4c0 35.2 19.2 76.8 70.4 80 19.2 3.2 38.4 0 57.6-6.4 0-9.6-3.2-19.2-3.2-25.6-12.8 3.2-22.4 6.4-32 6.4zM374.4 387.2c-12.8 0-25.6 0-35.2 0 3.2 19.2 6.4 35.2 9.6 54.4s6.4 35.2 9.6 54.4c12.8 0 25.6 0 38.4 0-9.6-35.2-16-73.6-22.4-108.8zM480 467.2c-12.8 0-22.4-3.2-28.8-19.2-3.2-12.8-6.4-25.6-9.6-38.4-3.2-6.4-3.2-16-3.2-22.4-12.8 0-25.6 0-38.4 0 6.4 35.2 16 73.6 22.4 108.8 9.6 0 22.4 0 32 0 0-6.4 0-9.6 0-16 9.6 6.4 16 16 25.6 16 6.4 0 9.6 0 16 0-3.2-9.6-6.4-19.2-9.6-28.8-3.2 0-6.4 0-6.4 0zM566.4 467.2c-12.8 0-22.4-3.2-28.8-19.2-3.2-12.8-6.4-25.6-9.6-35.2s-3.2-16-6.4-25.6c-12.8 0-25.6 0-38.4 0 6.4 35.2 16 73.6 22.4 108.8 9.6 0 22.4 0 32 0 0-3.2 0-9.6 0-12.8 6.4 3.2 12.8 9.6 19.2 12.8s16 3.2 22.4 3.2c-3.2-9.6-6.4-19.2-12.8-28.8 0-3.2 0-3.2 0-3.2zM688 387.2c-9.6 0-22.4 0-32 0 0 3.2 0 9.6 0 16-3.2-3.2-6.4-6.4-9.6-6.4-12.8-9.6-22.4-12.8-38.4-12.8s-28.8 16-28.8 32c0 9.6 0 16 3.2 25.6 3.2 19.2 6.4 35.2 9.6 54.4 12.8 0 22.4 0 35.2 0 0-3.2 0-3.2 0-6.4-3.2-16-6.4-35.2-9.6-51.2 0-3.2 0-3.2 0-6.4 0-9.6 3.2-16 16-16 9.6 0 19.2 3.2 25.6 12.8 3.2 6.4 6.4 12.8 9.6 22.4 3.2 16 6.4 28.8 9.6 44.8 12.8 0 25.6 0 38.4 0-12.8-35.2-22.4-73.6-28.8-108.8zM806.4 470.4c-6.4 0-9.6 0-16 0s-16 0-22.4 0c-3.2 0-6.4-3.2-6.4-9.6 0-3.2 3.2-6.4 6.4-9.6 6.4-3.2 12.8-3.2 16-6.4 19.2-6.4 22.4-19.2 19.2-38.4-3.2-9.6-6.4-16-16-22.4-6.4-3.2-12.8-3.2-16-6.4-12.8-3.2-48-3.2-64 3.2 0 6.4 3.2 16 3.2 22.4 12.8 0 28.8-3.2 41.6-3.2 3.2 0 6.4 0 9.6 3.2 6.4 3.2 6.4 9.6 0 16-3.2 3.2-6.4 3.2-9.6 3.2-6.4 3.2-12.8 6.4-16 9.6-22.4 12.8-16 41.6 0 51.2 9.6 6.4 16 6.4 25.6 9.6 16 0 28.8 0 44.8 0 0 0 3.2 0 6.4 0-3.2-6.4-3.2-12.8-6.4-22.4z" />
<glyph unicode="&#xe966;" glyph-name="todopago" d="M700.8 768h-556.8c-35.2 0-64-28.8-64-64s28.8-64 64-64h176c3.2 0 3.2-3.2 3.2-3.2 0-3.2 0-3.2-3.2-3.2s-25.6-6.4-41.6-12.8v-422.4c0-38.4 32-70.4 70.4-70.4s70.4 32 70.4 70.4v441.6h268.8c70.4 0 115.2-32 115.2-92.8v-3.2c0-54.4-41.6-96-112-96 0 0-44.8 0-108.8 0-51.2 0-57.6-25.6-57.6-48s0-204.8 0-204.8c0-38.4 32-70.4 70.4-70.4s70.4 32 70.4 70.4v105.6c-16 3.2-44.8 12.8-48 12.8s-3.2 3.2-3.2 3.2 3.2 3.2 3.2 3.2h67.2c144 0 259.2 76.8 259.2 224v3.2c0 131.2-92.8 220.8-243.2 220.8z" />
<glyph unicode="&#xe967;" glyph-name="twitter" d="M803.2 608v-19.2c0-70.4-16-134.4-48-201.6-32-64-83.2-118.4-150.4-163.2s-144-86.4-230.4-86.4c-86.4 0-163.2 44.8-233.6 89.6 6.4 0 19.2 0 38.4 0 70.4 0 134.4 22.4 188.8 64-32 0-60.8 12.8-86.4 32s-44.8 44.8-54.4 73.6c6.4-3.2 16-3.2 25.6-3.2 16 0 28.8 0 41.6 3.2-35.2 6.4-64 25.6-86.4 54.4s-32 60.8-32 96v0c22.4-12.8 44.8-19.2 67.2-19.2-44.8 32-67.2 73.6-67.2 128 0 25.6 6.4 51.2 19.2 73.6 83.2-102.4 188.8-153.6 313.6-156.8-3.2 9.6-3.2 19.2-3.2 32 0 41.6 16 76.8 44.8 105.6s64 44.8 108.8 44.8c44.8 0 80-16 108.8-44.8 35.2 6.4 67.2 19.2 96 35.2-12.8-35.2-32-64-67.2-83.2 28.8 6.4 60.8 12.8 86.4 22.4-22.4-28.8-48-54.4-80-76.8z" />
<glyph unicode="&#xe968;" glyph-name="visa" d="M403.2 585.6l-115.2-278.4h-76.8l-57.6 224c-3.2 12.8-6.4 19.2-16 25.6-16 9.6-44.8 19.2-70.4 22.4l3.2 9.6h121.6c16 0 28.8-9.6 32-28.8l28.8-160 73.6 188.8h76.8zM704 400c0 73.6-102.4 76.8-102.4 112 0 9.6 9.6 19.2 32 22.4 9.6 0 38.4 3.2 70.4-12.8l12.8 57.6c-16 6.4-38.4 12.8-67.2 12.8-70.4 0-121.6-38.4-121.6-92.8 0-41.6 35.2-64 64-76.8s38.4-22.4 38.4-35.2c0-19.2-22.4-25.6-41.6-28.8-35.2 0-57.6 9.6-73.6 16l-19.2-54.4c16-6.4 48-16 80-16 76.8 0 128 38.4 128 96zM892.8 307.2h67.2l-57.6 278.4h-60.8c-12.8 0-25.6-9.6-32-19.2l-108.8-259.2h76.8l16 41.6h92.8l6.4-41.6zM809.6 406.4l38.4 105.6 22.4-105.6h-60.8zM508.8 585.6l-60.8-278.4h-73.6l60.8 278.4h73.6z" />
<glyph unicode="&#xe969;" glyph-name="ingrese-tarjeta" d="M960 736h-896v-96h64v-416c0-28.8 25.6-54.4 54.4-54.4h339.2c28.8 0 54.4 28.8 54.4 54.4v416h384v96zM192 224v416h32v-416h-32zM512 224h-160v416h160v-416zM854.4 262.4h-131.2v185.6h-105.6l169.6 160 169.6-160h-105.6v-185.6z" />
<glyph unicode="&#xe96a;" glyph-name="retire-tarjeta" d="M960 736h-896v-96h64v-416c0-28.8 25.6-54.4 54.4-54.4h339.2c28.8 0 54.4 28.8 54.4 54.4v416h384v96zM192 224v416h32v-416h-32zM512 224h-160v416h160v-416zM726.4 505.6h131.2v-185.6h105.6l-169.6-160-169.6 160h105.6v185.6z" />
<glyph unicode="&#xe96b;" glyph-name="arriba" horiz-adv-x="992" d="M444.8 35.2v630.4l-284.8-288-73.6 73.6 409.6 409.6 409.6-409.6-73.6-70.4-284.8 284.8v-630.4h-102.4z" />
<glyph unicode="&#xe96c;" glyph-name="abajo" horiz-adv-x="992" d="M547.2 860.8v-630.4l284.8 284.8 73.6-73.6-409.6-406.4-409.6 409.6 73.6 70.4 284.8-284.8v630.4h102.4z" />
</font>
</defs>
</svg>
