<svg id="Capa_1" data-name="Capa 1" xmlns="http://www.w3.org/2000/svg" viewBox="0 0 100 100"><defs><style>.cls-1{fill:#6d8513;}</style></defs><title>Mesa de trabajo 4</title><path class="cls-1" d="M50,97A47,47,0,1,1,97,50,47,47,0,0,1,50,97ZM50,8A42,42,0,1,0,92,50,42,42,0,0,0,50,8Z"/><path class="cls-1" d="M50,76A24.47,24.47,0,0,1,26.06,57.1,2.4,2.4,0,0,1,30.74,56a19.76,19.76,0,0,0,38.51-.23,2.4,2.4,0,0,1,4.69,1A24.71,24.71,0,0,1,50,76Z"/><circle class="cls-1" cx="32.5" cy="35.5" r="4.5"/><circle class="cls-1" cx="67.5" cy="35.5" r="4.5"/></svg>