<?xml version="1.0" encoding="utf-8"?>
<!-- Generator: Adobe Illustrator 18.1.1, SVG Export Plug-In . SVG Version: 6.00 Build 0)  -->
<svg version="1.1" id="Capa_1" xmlns="http://www.w3.org/2000/svg" xmlns:xlink="http://www.w3.org/1999/xlink" x="0px" y="0px"
	 viewBox="0 0 125.25 85.333" enable-background="new 0 0 125.25 85.333" xml:space="preserve">
<g>
	<g>
		<g>
			<g>
				<g>
					<g>
						<path fill="#C6C6C6" d="M20.56,66.879V19.455c0-1.539,1.259-2.788,2.811-2.788h78.258c1.553,0,2.812,1.249,2.812,2.788v47.424
							c0,1.539-1.259,2.788-2.812,2.788H23.371C21.818,69.667,20.56,68.418,20.56,66.879z M25.5,21.667v43h74v-43H25.5z"/>
					</g>
				</g>
			</g>
		</g>
		<g>
			<path fill="#C6C6C6" d="M88.75,40h-44c-1.104,0-2-0.896-2-2s0.896-2,2-2h44c1.104,0,2,0.896,2,2S89.854,40,88.75,40z"/>
		</g>
		<g>
			<path fill="#C6C6C6" d="M88.75,49h-44c-1.104,0-2-0.896-2-2s0.896-2,2-2h44c1.104,0,2,0.896,2,2S89.854,49,88.75,49z"/>
		</g>
		<g>
			<path fill="#C6C6C6" d="M88.75,59h-17c-1.104,0-2-0.896-2-2s0.896-2,2-2h17c1.104,0,2,0.896,2,2S89.854,59,88.75,59z"/>
		</g>
		<g>
			<path fill="#C6C6C6" d="M35,25.167c-3.032,0-5.5,2.467-5.5,5.5s2.468,5.5,5.5,5.5c3.032,0,5.5-2.467,5.5-5.5
				S38.032,25.167,35,25.167z"/>
		</g>
	</g>
</g>
</svg>
