<svg id="Capa_1" data-name="Capa 1" xmlns="http://www.w3.org/2000/svg" viewBox="0 0 112 100"><defs><style>.cls-1{fill:#6d8513;}</style></defs><title>Mesa de trabajo 10</title><g id="_Grupo_" data-name="&lt;Grupo&gt;"><path class="cls-1" d="M34.63,81.73a31.74,31.74,0,1,1,30-42.1h38a6.49,6.49,0,0,1,6.49,6.48v7.77a6.5,6.5,0,0,1-6.49,6.49h-1.28v9.05a6.5,6.5,0,0,1-6.49,6.49H87.07a6.49,6.49,0,0,1-6.48-6.49V60.37h-16A31.83,31.83,0,0,1,34.63,81.73Zm-.06-58.26a27.73,27.73,0,0,0-4.93.45,26.4,26.4,0,0,0-21,20.7A26.53,26.53,0,0,0,60.17,57.07a2.61,2.61,0,0,1,2.51-1.91H83.19a2.6,2.6,0,0,1,2.6,2.61V69.42a1.28,1.28,0,0,0,1.28,1.28h7.77a1.28,1.28,0,0,0,1.29-1.28V57.77a2.6,2.6,0,0,1,2.6-2.61h3.88a1.28,1.28,0,0,0,1.28-1.28V46.11a1.28,1.28,0,0,0-1.28-1.28H62.68a2.61,2.61,0,0,1-2.51-1.91A26.46,26.46,0,0,0,34.57,23.47Zm.06,42.72A16.2,16.2,0,1,1,50.83,50,16.21,16.21,0,0,1,34.63,66.19Zm0-27.19a11,11,0,1,0,11,11A11,11,0,0,0,34.63,39Z"/></g></svg>