<svg id="Capa_1" data-name="Capa 1" xmlns="http://www.w3.org/2000/svg" viewBox="0 0 100 100"><defs><style>.cls-1{fill:none;}.cls-2{fill:#6d8513;}</style></defs><title>Mesa de trabajo 13</title><path class="cls-1" d="M50,3H3V50A47,47,0,0,1,50,3Z"/><path class="cls-1" d="M12.12,91.3c-2.59,0-3.71-1.41-3.42-3.42l2.42-11.53A47.12,47.12,0,0,1,3,50V97H50a48.1,48.1,0,0,1-26.35-8Z"/><path class="cls-1" d="M97,50V3H50A47,47,0,0,1,97,50Z"/><path class="cls-1" d="M50,97H97V50A47,47,0,0,1,50,97Z"/><path class="cls-2" d="M97,50A47,47,0,1,0,11.12,76.35L8.7,87.88c-.29,2,.83,3.42,3.42,3.42L23.65,89A48.1,48.1,0,0,0,50,97,47,47,0,0,0,97,50ZM50,92a41.84,41.84,0,0,1-24.5-7.84,1.71,1.71,0,0,0-1.12-.28L13.88,86,16,75.48a1.09,1.09,0,0,0-.28-1.12A42.06,42.06,0,1,1,50,92Z"/><path class="cls-2" d="M50.37,23.4c-9.95,0-17.74,7.59-17.74,17.29a2.52,2.52,0,1,0,5,0,12.07,12.07,0,0,1,3.76-8.8,12.29,12.29,0,0,1,8.93-3.46,12.58,12.58,0,0,1,12,12,12.18,12.18,0,0,1-8.8,12.12,8.52,8.52,0,0,0-6,8.12v3.84a2.52,2.52,0,1,0,5,0V60.64A3.32,3.32,0,0,1,55,57.38a17.16,17.16,0,0,0,12.34-17h0A17.84,17.84,0,0,0,50.37,23.4Z"/><path class="cls-2" d="M50.07,70a3.5,3.5,0,1,0,3.5,3.5A3.5,3.5,0,0,0,50.07,70Z"/></svg>