<svg id="Capa_1" data-name="Capa 1" xmlns="http://www.w3.org/2000/svg" viewBox="0 0 100 100"><defs><style>.cls-1{fill:#fd0000;}</style></defs><title>Mesa de trabajo 1</title><path class="cls-1" d="M16.33,95.59A11.94,11.94,0,0,1,7.9,75.22L33.09,50,7.9,24.78A11.93,11.93,0,1,1,24.76,7.91L49.94,33.13,75.13,7.91A12.2,12.2,0,0,1,92,7.91a11.67,11.67,0,0,1,0,16.87L66.8,50,92,75.22A11.92,11.92,0,1,1,75.13,92.09L49.94,66.87,24.76,92.09A11.86,11.86,0,0,1,16.33,95.59Zm0-86.23A7,7,0,0,0,11.4,21.28L40.08,50,11.4,78.72a7,7,0,1,0,9.86,9.87L49.94,59.88,78.62,88.59a7,7,0,0,0,9.87-9.87L59.81,50,88.49,21.28a6.75,6.75,0,0,0,0-9.87,7,7,0,0,0-4.92-1.9h0a7,7,0,0,0-4.93,1.9L49.94,40.12,21.26,11.41A6.91,6.91,0,0,0,16.33,9.36Z"/></svg>