<svg id="Capa_1" data-name="Capa 1" xmlns="http://www.w3.org/2000/svg" viewBox="0 0 100 100"><defs><style>.cls-1{fill:#6d8513;}</style></defs><title>Mesa de trabajo 7</title><path class="cls-1" d="M74,32.5h0A2.5,2.5,0,0,1,76.5,30H92V8H8V30H23.5A2.5,2.5,0,0,1,26,32.5h0A2.5,2.5,0,0,1,23.5,35H6a3,3,0,0,1-3-3V6A3,3,0,0,1,6,3H94a3,3,0,0,1,3,3V32a3,3,0,0,1-3,3H76.5A2.5,2.5,0,0,1,74,32.5Z"/><path class="cls-1" d="M52.41,97H47.59A7.61,7.61,0,0,1,40,89.41V54.16l-4.43,4.43a7.6,7.6,0,0,1-10.74,0l-4.11-4.11a7.6,7.6,0,0,1,0-10.74L44.63,19.83a7.6,7.6,0,0,1,10.74,0L79.28,43.74a7.6,7.6,0,0,1,0,10.74l-4.11,4.11a7.6,7.6,0,0,1-10.74,0L60,54.16V89.41A7.61,7.61,0,0,1,52.41,97ZM45,42.09V89.41A2.59,2.59,0,0,0,47.59,92h4.82A2.59,2.59,0,0,0,55,89.41V42.09l13,13a2.6,2.6,0,0,0,3.67,0L75.74,51a2.6,2.6,0,0,0,0-3.67L51.83,23.37a2.65,2.65,0,0,0-3.66,0L24.26,47.28a2.6,2.6,0,0,0,0,3.67l4.11,4.11a2.6,2.6,0,0,0,3.67,0Z"/></svg>