<?xml version="1.0" encoding="utf-8"?>
<!-- Generator: Adobe Illustrator 18.1.1, SVG Export Plug-In . SVG Version: 6.00 Build 0)  -->
<svg version="1.1" id="Capa_1" xmlns="http://www.w3.org/2000/svg" xmlns:xlink="http://www.w3.org/1999/xlink" x="0px" y="0px"
	 viewBox="0 0 100 100" enable-background="new 0 0 100 100" xml:space="preserve">
<g>
	<g>
		<g>
			<path fill="#748327" d="M89.346,29.318l-9.425,9.425L61.19,20.012l9.363-9.363c2.452-2.326,5.398-2.326,7.184-0.188
				l11.547,11.564C91.775,24.164,91.775,27.037,89.346,29.318L89.346,29.318z M28.642,86.535L9.598,90.351l3.811-19.061
				L28.642,86.535z M34.421,84.265L15.679,65.517l41.484-41.484l18.725,18.731L34.421,84.265z M93.14,17.85L81.929,6.627
				C78.112,2.031,71.36,2.031,66.582,6.576L55.155,18.004l-45.505,45.5c-0.387,0.387-0.626,0.887-0.757,1.416
				c-0.006,0.017-0.017,0.028-0.023,0.04l-0.034,0.182c-0.017,0.097-0.057,0.193-0.057,0.296L3.182,93.423
				c-0.398,1.991,1.359,3.748,3.35,3.345l27.946-5.603c0.148-0.006,0.284-0.057,0.427-0.085l0.091-0.023
				c0.006,0,0.011-0.006,0.011-0.006c0.535-0.131,1.03-0.37,1.416-0.757c0.006-0.006,0.017-0.006,0.023-0.011l45.448-45.483
				c0.011-0.011,0.023-0.011,0.034-0.023l11.376-11.376C98.089,28.902,98.095,22.082,93.14,17.85L93.14,17.85z"/>
		</g>
	</g>
</g>
</svg>
