<svg id="Capa_1" data-name="Capa 1" xmlns="http://www.w3.org/2000/svg" viewBox="0 0 100 100"><defs><style>.cls-1{fill:#6d8513;}</style></defs><title>Mesa de trabajo 8</title><path class="cls-1" d="M71,32.5h0A2.5,2.5,0,0,1,73.5,30H92V8H8V30h3.5A2.5,2.5,0,0,1,14,32.5h0A2.5,2.5,0,0,1,11.5,35H6a3,3,0,0,1-3-3V6A3,3,0,0,1,6,3H94a3,3,0,0,1,3,3V32a3,3,0,0,1-3,3H73.5A2.5,2.5,0,0,1,71,32.5Z"/><path class="cls-1" d="M71.8,65.4l9.81,9.81a2.67,2.67,0,0,0,3.79,0l9.81-9.81a2.68,2.68,0,1,0-3.79-3.79L86,67V44.58a2.5,2.5,0,1,0-5,0V67l-5.43-5.43a2.66,2.66,0,0,0-1.89-.78,2.68,2.68,0,0,0-1.9,4.57Z"/><path class="cls-1" d="M19.79,21.12H65.21A2.8,2.8,0,0,1,68,23.93V94.19A2.8,2.8,0,0,1,65.21,97H19.79A2.8,2.8,0,0,1,17,94.19V23.93A2.8,2.8,0,0,1,19.79,21.12ZM63,26.06H22v66H63Z"/><path class="cls-1" d="M32,59.06a10.5,10.5,0,1,1,10.5,10.5A10.51,10.51,0,0,1,32,59.06Zm16,0a5.5,5.5,0,1,0-5.5,5.5A5.51,5.51,0,0,0,48,59.06Z"/><path class="cls-1" d="M48,25.06h5c0,7.5,3.39,11.05,11,11.05v5C54.87,41.06,48,35.57,48,25.06Z"/><path class="cls-1" d="M21,41.06v-5c7.51,0,11-3.39,11-11h5C37,34.19,31.51,41.06,21,41.06Z"/><path class="cls-1" d="M37,93.06H32c0-7.51-3.39-11-11-11v-5C30.13,77.06,37,82.55,37,93.06Z"/><path class="cls-1" d="M64,77.06v5c-7.51,0-11,3.39-11,11H48C48,83.93,53.49,77.06,64,77.06Z"/></svg>