<svg id="Capa_1" data-name="Capa 1" xmlns="http://www.w3.org/2000/svg" viewBox="0 0 100 100"><defs><style>.cls-1{fill:#6d8513;}</style></defs><title>Mesa de trabajo 6</title><path class="cls-1" d="M71,32.5h0A2.5,2.5,0,0,1,73.5,30H92V8H8V30h3.5A2.5,2.5,0,0,1,14,32.5h0A2.5,2.5,0,0,1,11.5,35H6a3,3,0,0,1-3-3V6A3,3,0,0,1,6,3H94a3,3,0,0,1,3,3V32a3,3,0,0,1-3,3H73.5A2.5,2.5,0,0,1,71,32.5Z"/><path class="cls-1" d="M95.21,52.6,85.4,42.79a2.67,2.67,0,0,0-3.79,0L71.8,52.6a2.68,2.68,0,1,0,3.8,3.79L81,51V73.42a2.5,2.5,0,1,0,5,0V51l5.42,5.43a2.68,2.68,0,1,0,3.79-3.79Z"/><path class="cls-1" d="M61.82,21H23.18A6.41,6.41,0,0,0,17,27.6V90.4A6.41,6.41,0,0,0,23.18,97H61.82A6.41,6.41,0,0,0,68,90.4V27.6A6.41,6.41,0,0,0,61.82,21ZM23.07,91.94c-.57,0-1.07-.69-1.07-1.47V27.53c0-.78.5-1.47,1.07-1.47H47V91.94ZM63,90.47c0,.78-.5,1.47-1.07,1.47H55V26.06h6.93c.57,0,1.07.69,1.07,1.47Z"/></svg>