<?xml version="1.0" encoding="utf-8"?>
<!-- Generator: Adobe Illustrator 18.1.1, SVG Export Plug-In . SVG Version: 6.00 Build 0)  -->
<svg version="1.1" id="Capa_1" xmlns="http://www.w3.org/2000/svg" xmlns:xlink="http://www.w3.org/1999/xlink" x="0px" y="0px"
	 viewBox="0 0 125.25 85.333" enable-background="new 0 0 125.25 85.333" xml:space="preserve">
<path fill="#748327" d="M122.023,57.897l-8.287-8.287c-0.884-0.885-2.318-0.885-3.202,0l-8.288,8.287
	c-0.884,0.884-0.884,2.319,0,3.203c0.885,0.885,2.318,0.885,3.203,0l4.566-4.566v18.952c0,1.206,0.865,2.182,2.112,2.182
	c1.247,0,2.112-0.977,2.112-2.182V56.519l4.581,4.581c0.442,0.443,1.022,0.664,1.601,0.664c0.579,0,1.159-0.221,1.601-0.664
	C122.909,60.216,122.909,58.781,122.023,57.897z"/>
<g>
	<g>
		<g>
			<path fill="#748327" d="M101.5,42.167L101.5,42.167c0-1.381,1.119-2.5,2.5-2.5h13.687v-27H7.5v27H9c1.381,0,2.5,1.119,2.5,2.5
				l0,0c0,1.381-1.119,2.5-2.5,2.5H5.469c-1.64,0-2.969-1.329-2.969-2.969V10.667c0-1.657,1.343-3,3-3h114.219
				c1.64,0,2.969,1.329,2.969,2.969v31.031c0,1.657-1.343,3-3,3H104C102.619,44.667,101.5,43.548,101.5,42.167z"/>
		</g>
	</g>
	<g>
		<g>
			<g>
				<g>
					<path fill="#748327" d="M14.56,74.879V27.455c0-1.539,1.259-2.788,2.811-2.788h78.258c1.553,0,2.812,1.249,2.812,2.788v47.424
						c0,1.539-1.259,2.788-2.812,2.788H17.371C15.818,77.667,14.56,76.418,14.56,74.879z M19.5,29.667v43h74v-43H19.5z"/>
				</g>
				<g>
					<path fill="#748327" d="M56.5,61.667c-5.79,0-10.5-4.71-10.5-10.5s4.71-10.5,10.5-10.5s10.5,4.71,10.5,10.5
						S62.29,61.667,56.5,61.667z M56.5,45.667c-3.032,0-5.5,2.467-5.5,5.5s2.468,5.5,5.5,5.5s5.5-2.467,5.5-5.5
						S59.532,45.667,56.5,45.667z"/>
				</g>
				<g>
					<path fill="#748327" d="M18.5,44.667v-5c7.505,0,11.047-3.389,11.047-11H34.5C34.5,37.799,29.008,44.667,18.5,44.667z"/>
				</g>
				<g>
					<path fill="#748327" d="M34.5,73.667h-5c0-7.505-3.39-11.046-11-11.046v-4.954C27.633,57.667,34.5,63.159,34.5,73.667z"/>
				</g>
				<g>
					<path fill="#748327" d="M94.5,57.667v5c-7.506,0-11.047,3.389-11.047,11H78.5C78.5,64.534,83.992,57.667,94.5,57.667z"/>
				</g>
				<g>
					<path fill="#748327" d="M78.5,28.667h5c0,7.505,3.39,11.046,11,11.046v4.954C85.367,44.667,78.5,39.174,78.5,28.667z"/>
				</g>
			</g>
		</g>
	</g>
</g>
</svg>
