<?xml version="1.0" encoding="utf-8"?>
<!-- Generator: Adobe Illustrator 22.0.1, SVG Export Plug-In . SVG Version: 6.00 Build 0)  -->
<svg version="1.1" id="Layer_1" xmlns="http://www.w3.org/2000/svg" xmlns:xlink="http://www.w3.org/1999/xlink" x="0px" y="0px"
	 viewBox="0 0 572.6 94.4" style="enable-background:new 0 0 572.6 94.4;" xml:space="preserve">
<g>
	<g>
		<g>
			<g>
				<g>
					<path d="M9.1,24.4h16.1c5.5,0,8.6,0.6,11.4,3.3c1.9,1.9,3.2,4.5,3.2,8.1c0,7.4-5.4,9.4-7.6,10.2c2.6,0.7,9,2.6,9,11.3
						c0,6.1-3.9,9.3-5.4,10.3c-3.1,2.1-6.6,2.1-10.2,2.1H9.1V24.4z M15.2,43.5H24c2.1,0,9.4,0,9.4-7.1c0-6.8-5.7-6.8-9.1-6.8h-9
						V43.5z M15.2,64.5h10.7c4.9,0,8.9-2.6,8.9-7.8c0-4.5-3.1-7.8-8.6-7.8H15.2V64.5z"/>
					<path d="M62.6,24.4h6.7l18.3,45.1h-6.8l-4.9-11.8h-21L50,69.5h-6.4L62.6,24.4z M56.9,52.7H74l-8.3-22.1L56.9,52.7z"/>
					<path d="M91.6,24.4h8.7l22.2,37.3V24.4h5.8v45.1h-8l-23-38.3v38.3h-5.7V24.4z"/>
					<path d="M163.3,36.6c-0.2-1.6-1.1-7.8-9.8-7.8c-10.9,0-12.8,11.1-12.8,18.6c0,8.5,2.4,17.7,12.8,17.7c2.8,0,5.4-0.7,7.3-2.7
						c1.6-1.8,2-3.7,2.2-4.8h6.9c-0.9,8.9-9.1,12.6-16.9,12.6c-15.9,0-18.9-14-18.9-22.8c0-9.5,3.7-23.7,19.8-23.7
						c6.4,0,15.4,2.6,16.2,12.8H163.3z"/>
					<path d="M180.5,29.3c4.7-5.1,10.9-6.1,15.1-6.1c12.5,0,20.4,8,20.4,23.3c0,12-4.8,24.1-20.9,24.1c-15.4,0-20.4-10.9-20.4-23.3
						C174.7,42.2,175.6,34.6,180.5,29.3z M185.3,61.2c2.6,3.2,6.4,4.1,10,4.1c3.7,0,7.4-1,10-4.1c3.7-4.5,4.1-11.6,4.1-14.7
						c0-10.3-3.4-18-13.7-18c-11.4,0-14.4,9.2-14.4,18.4C181.3,51.9,182.2,57.3,185.3,61.2z"/>
					<path d="M266,36.6c-0.2-1.6-1.1-7.8-9.8-7.8c-10.9,0-12.8,11.1-12.8,18.6c0,8.5,2.4,17.7,12.8,17.7c2.8,0,5.4-0.7,7.3-2.7
						c1.6-1.8,2-3.7,2.2-4.8h6.9c-0.9,8.9-9.1,12.6-16.9,12.6c-15.9,0-18.9-14-18.9-22.8c0-9.5,3.7-23.7,19.8-23.7
						c6.4,0,15.4,2.6,16.2,12.8H266z"/>
					<path d="M283.3,29.3c4.7-5.1,10.9-6.1,15.1-6.1c12.5,0,20.4,8,20.4,23.3c0,12-4.8,24.1-20.9,24.1c-15.4,0-20.4-10.9-20.4-23.3
						C277.5,42.2,278.3,34.6,283.3,29.3z M288,61.2c2.6,3.2,6.4,4.1,10,4.1c3.7,0,7.4-1,10-4.1c3.7-4.5,4.1-11.6,4.1-14.7
						c0-10.3-3.4-18-13.7-18c-11.5,0-14.4,9.2-14.4,18.4C284,51.9,284.9,57.3,288,61.2z"/>
					<path d="M324.9,24.4H336l12.8,37.2l13.1-37.2h10.3v45.1H366V28.9l-14.8,40.6h-5.9L331,29.2v40.4h-6.1V24.4z"/>
					<path d="M395.4,24.4h6.7l18.3,45.1h-6.8l-4.9-11.8h-20.9l-4.9,11.8h-6.4L395.4,24.4z M389.7,52.7h17.1l-8.3-22.1L389.7,52.7z"
						/>
					<path d="M425,24.4h26.9v5.3h-20.5v14.1h19.3V49h-19.3v20.5H425V24.4z"/>
					<path d="M459.4,24.4h6.3v45.1h-6.3V24.4z"/>
				</g>
			</g>
		</g>
	</g>
	<path d="M558.2,46.8c0-0.3,0-0.6,0-0.9h4.8l0-3c-0.1-22.2-20.1-37.1-38.6-37.1h-3v5.4c-19.3,0.5-34.9,16.3-34.9,35.7
		c0,19.4,15.6,35.1,34.9,35.7v5.5h3c18.6,0,38.5-14.9,38.6-37.1l0-3h-4.8C558.2,47.5,558.2,47.2,558.2,46.8z M527.3,11.9
		c13.7,1.4,27.7,12.4,29.4,28h-29.4V11.9z M527.3,81.9v-28h29.4C555.1,69.5,541,80.5,527.3,81.9z M521.3,47.9v28.6
		c-16-0.5-28.9-13.6-28.9-29.7c0-16,12.9-29.2,28.9-29.7v28.8h30.9c0,0.3,0,0.6,0,0.9c0,0.4,0,0.7,0,1.1H521.3z"/>
</g>
</svg>
