<svg id="Capa_1" data-name="Capa 1" xmlns="http://www.w3.org/2000/svg" viewBox="0 0 130 100"><defs><style>.cls-1{fill:#3ba946;}</style></defs><title>Mesa de trabajo 3</title><path class="cls-1" d="M50.41,97A11.83,11.83,0,0,1,42,93.5C40.22,91.75,6.72,59.34,6.38,59a11.93,11.93,0,1,1,16.84-16.9L49.85,68.75l56.82-56.81a12.23,12.23,0,0,1,16.87,0,11.67,11.67,0,0,1,0,16.87L58.84,93.5A11.82,11.82,0,0,1,50.41,97ZM14.78,43.57A7,7,0,0,0,9.85,55.49C11.2,56.8,43.69,88.23,45.47,90a7,7,0,0,0,9.87,0L120,25.31a6.76,6.76,0,0,0,0-9.88,7.38,7.38,0,0,0-9.88,0L49.85,75.74,19.72,45.61A6.93,6.93,0,0,0,14.78,43.57Z"/></svg>