<svg id="Capa_1" data-name="Capa 1" xmlns="http://www.w3.org/2000/svg" viewBox="0 0 114 100"><defs><style>.cls-1{fill:#6d8513;}</style></defs><title>Mesa de trabajo 9</title><path class="cls-1" d="M102,49.5h0a2.5,2.5,0,0,1,2.5-2.5H106V20H8V47H9.5A2.5,2.5,0,0,1,12,49.5h0A2.5,2.5,0,0,1,9.5,52H6a3,3,0,0,1-3-3V18a3,3,0,0,1,3-3H108a3,3,0,0,1,3,3V49a3,3,0,0,1-3,3h-3.5A2.5,2.5,0,0,1,102,49.5Z"/><path class="cls-1" d="M15.06,82.21V34.79A2.8,2.8,0,0,1,17.87,32H96.13a2.8,2.8,0,0,1,2.81,2.79V82.21A2.8,2.8,0,0,1,96.13,85H17.87A2.8,2.8,0,0,1,15.06,82.21ZM20,37V80H94V37Z"/><path class="cls-1" d="M57,69A10.5,10.5,0,1,1,67.5,58.5,10.51,10.51,0,0,1,57,69Zm0-16a5.5,5.5,0,1,0,5.5,5.5A5.51,5.51,0,0,0,57,53Z"/><path class="cls-1" d="M19,52V47c7.51,0,11.05-3.39,11.05-11H35C35,45.13,29.51,52,19,52Z"/><path class="cls-1" d="M35,81H30c0-7.51-3.39-11-11-11V65C28.13,65,35,70.49,35,81Z"/><path class="cls-1" d="M95,65v5c-7.51,0-11,3.39-11,11H79C79,71.87,84.49,65,95,65Z"/><path class="cls-1" d="M79,36h5c0,7.51,3.39,11,11,11v5C85.87,52,79,46.51,79,36Z"/></svg>