<svg id="Capa_1" data-name="Capa 1" xmlns="http://www.w3.org/2000/svg" viewBox="0 0 124 100"><defs><style>.cls-1{fill:#6d8513;}</style></defs><title>Mesa de trabajo 12</title><path class="cls-1" d="M60.59,31.49l3.4-3.4a7.6,7.6,0,0,1,10.74,0L99.65,53V46.75a7.61,7.61,0,0,1,7.6-7.6h5.81a7.6,7.6,0,0,1,7.59,7.6V80.56a7.59,7.59,0,0,1-7.59,7.59H79.25a7.6,7.6,0,0,1-7.6-7.59V74.75a7.61,7.61,0,0,1,7.6-7.6h6.26L60.59,42.23A7.6,7.6,0,0,1,60.59,31.49Zm44.06,33.59L71.2,31.63a2.58,2.58,0,0,0-3.67,0L64.13,35a2.58,2.58,0,0,0,0,3.67L97.58,72.15H79.25a2.61,2.61,0,0,0-2.6,2.6v5.81a2.6,2.6,0,0,0,2.6,2.59h33.81a2.66,2.66,0,0,0,2.59-2.59V46.75a2.6,2.6,0,0,0-2.59-2.6h-5.81a2.61,2.61,0,0,0-2.6,2.6Z"/><path class="cls-1" d="M63.41,68.51,60,71.91a7.6,7.6,0,0,1-10.74,0L24.35,47v6.26a7.61,7.61,0,0,1-7.6,7.6H10.94a7.6,7.6,0,0,1-7.59-7.6V19.44a7.59,7.59,0,0,1,7.59-7.59H44.75a7.6,7.6,0,0,1,7.6,7.59v5.81a7.61,7.61,0,0,1-7.6,7.6H38.49L63.41,57.77A7.6,7.6,0,0,1,63.41,68.51ZM19.35,34.92,52.8,68.37a2.58,2.58,0,0,0,3.67,0l3.4-3.4a2.58,2.58,0,0,0,0-3.67L26.42,27.85H44.75a2.61,2.61,0,0,0,2.6-2.6V19.44a2.6,2.6,0,0,0-2.6-2.59H10.94a2.66,2.66,0,0,0-2.59,2.59V53.25a2.6,2.6,0,0,0,2.59,2.6h5.81a2.61,2.61,0,0,0,2.6-2.6Z"/></svg>